<svg width="64" height="64" viewBox="0 0 64 64" xmlns="http://www.w3.org/2000/svg">
  <!-- Capa -->
  <path d="M22 20 C16 40, 48 40, 42 20 Z" fill="#7b3f00" stroke="#f8e9c1" stroke-width="1.5"></path>

  <!-- Cuerpo -->
  <rect x="26" y="20" width="12" height="18" fill="#3b82f6" stroke="#f8e9c1" stroke-width="1"></rect>

  <!-- Cabeza -->
  <circle cx="32" cy="12" r="6" fill="#fdd7b0" stroke="#000" stroke-width="1.2"></circle>

  <!-- Casco -->
  <path d="M26 12 Q32 2, 38 12 Z" fill="#c0c0c0" stroke="#f8e9c1" stroke-width="1.2"></path>

  <!-- Ojos -->
  <circle cx="30" cy="12" r="1" fill="#000"></circle>
  <circle cx="34" cy="12" r="1" fill="#000"></circle>

  <!-- Brazos -->
  <rect x="20" y="20" width="6" height="3" fill="#3b82f6"></rect>
  <rect x="38" y="20" width="6" height="3" fill="#3b82f6"></rect>

  <!-- Piernas -->
  <rect x="26" y="38" width="4" height="10" fill="#8b4513"></rect>
  <rect x="34" y="38" width="4" height="10" fill="#8b4513"></rect>

  <!-- Botas -->
  <rect x="26" y="48" width="4" height="2" fill="#000"></rect>
  <rect x="34" y="48" width="4" height="2" fill="#000"></rect>

  <!-- Espada -->
  <rect x="38" y="18" width="2" height="12" fill="#c0c0c0"></rect>
  <rect x="37" y="28" width="4" height="2" fill="#8b4513"></rect>

  <!-- Brillo mágico de espada -->
  <circle cx="39" cy="18" r="2" fill="yellow" opacity="0.6">
    <animate attributeName="r" values="2;4;2" dur="1s" repeatCount="indefinite"></animate>
    <animate attributeName="opacity" values="0.6;1;0.6" dur="1s" repeatCount="indefinite"></animate>
  </circle>
</svg>
