<?xml version="1.0" encoding="UTF-8"?>
<svg version="1.1" xmlns="http://www.w3.org/2000/svg" width="912" height="755">
<path d="M0,0 L14,0 L18,8 L22,17 L27,22 L28,26 L22,31 L19,38 L17,38 L19,44 L19,51 L18,53 L18,62 L19,64 L19,71 L18,72 L18,82 L19,83 L19,90 L18,92 L18,101 L19,103 L19,110 L18,111 L18,121 L19,122 L19,129 L17,135 L19,135 L19,139 L23,140 L33,142 L34,143 L34,150 L26,156 L24,159 L29,158 L41,152 L53,141 L57,140 L57,151 L65,157 L69,155 L77,147 L85,140 L88,137 L90,137 L91,134 L97,129 L99,129 L99,127 L105,123 L108,124 L108,126 L110,126 L113,130 L113,132 L115,132 L118,137 L117,139 L115,138 L115,136 L106,138 L106,140 L101,143 L103,139 L107,135 L108,131 L102,132 L102,134 L98,135 L97,144 L97,148 L86,157 L86,158 L88,158 L88,156 L96,153 L105,152 L113,148 L118,145 L120,146 L119,150 L116,153 L114,153 L114,155 L109,157 L108,160 L101,165 L96,170 L91,175 L86,179 L87,183 L93,185 L95,180 L100,174 L102,173 L108,173 L108,171 L114,166 L116,166 L117,163 L121,160 L123,160 L124,157 L129,155 L129,153 L136,148 L135,141 L127,132 L121,116 L120,110 L123,105 L131,101 L141,95 L147,92 L166,82 L178,77 L187,73 L192,70 L196,71 L201,85 L204,97 L195,103 L186,107 L176,111 L168,115 L160,119 L157,122 L167,128 L173,125 L189,117 L201,111 L214,106 L218,105 L218,96 L217,92 L215,92 L212,84 L212,77 L210,71 L210,64 L214,61 L228,56 L232,57 L233,64 L236,68 L236,70 L230,73 L218,77 L215,79 L214,82 L219,84 L225,87 L229,85 L231,84 L238,90 L238,95 L242,97 L238,100 L236,100 L236,102 L231,107 L230,110 L225,114 L221,118 L223,126 L225,128 L224,130 L228,128 L238,128 L249,129 L245,127 L238,123 L234,122 L234,124 L230,125 L230,123 L232,122 L233,119 L239,115 L252,112 L261,109 L268,106 L269,109 L271,109 L272,114 L263,114 L259,117 L257,117 L257,119 L266,122 L270,126 L271,129 L274,126 L277,126 L278,118 L279,114 L281,114 L282,111 L293,109 L297,111 L299,116 L297,116 L297,114 L287,114 L282,119 L283,129 L278,131 L275,131 L274,134 L271,135 L271,137 L282,136 L286,135 L296,135 L302,132 L306,130 L308,125 L309,121 L319,117 L317,114 L310,115 L315,110 L318,110 L316,101 L312,103 L309,103 L307,109 L304,109 L305,102 L304,99 L305,97 L307,97 L307,95 L293,94 L297,92 L306,92 L319,94 L328,96 L332,97 L338,99 L347,98 L359,98 L358,94 L356,94 L356,92 L350,91 L349,94 L341,94 L336,89 L329,87 L334,92 L335,96 L332,96 L332,94 L330,94 L326,90 L326,88 L317,89 L312,87 L312,85 L304,83 L305,87 L301,87 L296,84 L290,82 L286,78 L287,74 L280,74 L277,73 L281,83 L281,85 L283,85 L284,90 L286,90 L286,92 L289,93 L288,95 L277,98 L274,99 L277,100 L280,98 L283,105 L283,109 L279,107 L278,104 L273,102 L268,103 L259,107 L257,107 L257,98 L255,89 L254,82 L251,78 L251,75 L249,76 L251,80 L251,85 L247,81 L238,62 L237,54 L239,52 L249,50 L261,52 L261,50 L269,49 L268,65 L271,72 L276,74 L276,70 L286,70 L289,69 L291,70 L291,76 L294,79 L297,80 L297,82 L300,82 L299,79 L302,77 L309,77 L312,79 L313,75 L311,65 L312,56 L317,40 L347,42 L362,44 L379,47 L390,49 L391,52 L388,63 L386,68 L383,71 L382,66 L380,66 L379,62 L368,58 L365,56 L346,56 L343,55 L347,61 L351,67 L351,69 L365,70 L371,72 L370,74 L355,72 L349,71 L342,71 L341,76 L342,83 L344,87 L352,89 L360,89 L373,91 L383,92 L387,88 L387,75 L393,62 L397,55 L415,59 L444,68 L460,74 L475,80 L479,83 L475,92 L468,106 L458,103 L443,97 L434,93 L432,91 L445,90 L447,88 L446,85 L437,82 L435,81 L436,79 L448,83 L456,86 L459,87 L459,89 L466,91 L471,93 L473,89 L475,89 L475,84 L467,80 L455,77 L445,73 L440,73 L433,71 L425,72 L416,72 L415,74 L400,70 L393,68 L391,77 L392,78 L391,88 L388,94 L386,95 L385,98 L392,97 L407,102 L406,92 L410,85 L424,85 L431,90 L427,91 L422,89 L417,89 L412,94 L414,99 L416,101 L428,105 L435,108 L448,113 L463,121 L470,120 L474,118 L475,124 L471,124 L471,126 L473,126 L475,130 L473,130 L473,132 L478,134 L482,140 L485,141 L482,134 L487,135 L486,130 L489,120 L502,124 L506,125 L506,127 L511,129 L513,134 L511,134 L511,132 L506,130 L504,129 L497,129 L492,126 L493,135 L499,142 L512,151 L523,159 L523,161 L527,163 L529,164 L529,166 L533,168 L538,173 L546,173 L550,171 L556,162 L567,155 L572,154 L572,152 L578,151 L585,159 L588,163 L588,165 L590,165 L593,169 L593,171 L595,171 L600,178 L600,180 L602,180 L610,191 L612,196 L614,196 L621,207 L623,212 L610,211 L603,211 L599,206 L599,204 L597,204 L595,197 L588,187 L588,185 L585,185 L579,178 L575,175 L568,174 L572,181 L572,183 L574,183 L577,189 L576,192 L576,190 L571,189 L568,198 L567,206 L569,206 L570,210 L572,210 L573,214 L575,214 L585,229 L587,233 L590,245 L595,250 L603,266 L606,272 L605,279 L606,290 L608,291 L608,293 L611,294 L609,295 L601,288 L595,284 L596,274 L597,270 L596,266 L586,263 L582,263 L583,266 L580,266 L578,259 L579,256 L577,249 L574,248 L573,245 L576,237 L576,227 L573,221 L569,217 L567,212 L565,214 L553,212 L520,211 L519,208 L518,194 L516,190 L511,188 L510,184 L509,181 L505,180 L501,178 L497,178 L493,173 L483,171 L483,164 L484,162 L486,162 L482,156 L479,155 L475,154 L473,152 L475,162 L470,165 L469,168 L470,173 L468,178 L469,183 L474,187 L480,191 L484,196 L481,196 L478,194 L478,192 L473,190 L467,186 L464,173 L457,172 L456,170 L462,167 L466,165 L467,161 L463,158 L459,157 L454,158 L455,162 L451,163 L444,162 L444,165 L440,164 L439,159 L437,161 L438,167 L442,167 L442,169 L444,169 L448,177 L446,181 L442,180 L441,177 L436,175 L434,170 L429,169 L432,175 L431,179 L424,180 L419,181 L415,180 L405,180 L405,177 L401,178 L398,177 L388,181 L382,183 L382,185 L389,186 L389,188 L402,191 L408,194 L414,195 L416,192 L419,195 L421,197 L429,201 L434,206 L437,206 L433,202 L437,199 L437,201 L441,201 L441,203 L445,204 L446,202 L449,206 L455,209 L455,211 L446,212 L443,211 L437,212 L428,209 L424,207 L421,211 L416,202 L407,197 L404,197 L400,203 L405,204 L408,208 L408,211 L411,211 L412,216 L408,215 L404,212 L396,210 L390,207 L386,203 L388,193 L389,190 L378,188 L375,188 L369,188 L368,194 L374,197 L383,200 L385,205 L378,205 L356,201 L339,198 L332,194 L332,192 L328,191 L324,188 L289,188 L273,192 L267,193 L262,193 L259,189 L259,187 L246,192 L238,197 L236,201 L246,198 L253,195 L255,195 L254,200 L249,205 L243,208 L239,211 L217,212 L184,212 L182,218 L182,230 L184,234 L190,233 L192,228 L193,228 L193,233 L195,233 L195,245 L190,248 L186,252 L184,252 L184,254 L179,256 L179,258 L171,258 L170,255 L162,254 L157,255 L154,257 L151,256 L149,260 L147,264 L148,263 L151,260 L156,261 L151,269 L149,269 L148,273 L144,279 L143,284 L141,284 L140,290 L142,290 L147,295 L148,300 L145,303 L138,303 L135,300 L135,309 L127,323 L123,332 L127,330 L133,319 L140,307 L143,306 L144,311 L138,323 L133,336 L127,349 L125,353 L116,354 L115,356 L113,359 L110,354 L107,353 L108,360 L112,362 L112,378 L111,382 L110,392 L111,393 L112,386 L115,378 L118,368 L120,361 L122,356 L125,358 L123,375 L118,407 L112,410 L108,411 L108,428 L111,446 L112,455 L111,459 L112,463 L115,470 L117,475 L121,480 L123,487 L128,499 L128,505 L122,506 L121,509 L113,516 L106,521 L107,512 L110,505 L105,504 L100,501 L92,498 L86,490 L86,487 L84,487 L83,489 L80,485 L79,482 L77,481 L77,479 L74,479 L76,487 L79,488 L82,504 L83,505 L84,501 L84,494 L87,493 L88,495 L88,510 L86,510 L85,519 L83,515 L79,513 L73,508 L74,511 L76,512 L76,517 L73,517 L76,526 L77,531 L63,531 L58,528 L56,528 L55,531 L40,531 L37,527 L34,519 L29,508 L29,499 L34,497 L36,492 L36,476 L29,473 L29,444 L31,447 L38,468 L38,456 L40,456 L40,458 L44,458 L41,451 L37,452 L33,446 L32,443 L29,443 L29,430 L39,415 L41,411 L43,411 L45,406 L50,398 L52,398 L54,393 L56,390 L60,390 L60,383 L64,377 L67,380 L66,384 L68,384 L67,375 L73,364 L79,362 L83,360 L84,356 L80,355 L80,352 L82,352 L84,347 L86,343 L88,343 L90,338 L97,329 L101,321 L105,315 L107,314 L110,308 L112,305 L114,305 L114,308 L117,303 L115,302 L115,300 L117,300 L119,293 L120,289 L121,282 L126,279 L128,274 L132,275 L132,273 L137,268 L146,254 L153,244 L155,240 L157,240 L158,236 L161,231 L163,231 L164,222 L161,221 L161,219 L159,219 L156,213 L156,211 L73,211 L73,209 L69,208 L69,206 L63,205 L53,197 L49,196 L46,180 L46,177 L33,187 L27,189 L27,208 L28,209 L28,215 L152,215 L160,224 L159,229 L133,268 L126,270 L122,278 L119,279 L119,281 L117,281 L117,283 L115,284 L117,288 L114,289 L116,291 L115,295 L105,311 L88,336 L81,346 L75,356 L73,356 L72,359 L69,359 L68,366 L39,410 L28,426 L26,430 L25,492 L29,491 L30,479 L33,479 L32,492 L30,494 L25,494 L25,550 L29,549 L30,537 L33,538 L33,550 L30,553 L25,553 L25,566 L22,565 L22,478 L21,436 L19,439 L18,584 L22,583 L22,571 L33,571 L33,597 L18,597 L18,613 L16,615 L15,596 L17,595 L31,595 L30,574 L23,574 L24,584 L22,586 L15,585 L15,484 L14,447 L7,457 L6,468 L10,468 L10,458 L12,458 L12,470 L11,471 L6,471 L6,497 L10,497 L10,487 L12,487 L12,498 L11,499 L6,499 L6,527 L10,527 L10,517 L12,517 L12,529 L6,530 L6,559 L10,559 L10,549 L12,549 L12,561 L7,562 L6,589 L26,589 L26,578 L28,579 L28,590 L27,591 L6,591 L6,607 L5,611 L7,615 L5,618 L3,618 L2,621 L0,621 L2,616 L1,616 L-4,620 L-9,625 L-14,629 L-17,632 L-17,629 L-11,624 L-6,619 L2,610 L3,607 L3,464 L-3,473 L-3,553 L-4,608 L-13,618 L-18,622 L-22,626 L-21,633 L-18,640 L-13,639 L-13,637 L-9,636 L-8,633 L-3,631 L-2,628 L6,621 L9,618 L11,618 L11,692 L6,704 L1,709 L-3,702 L-7,693 L-8,688 L-8,660 L-3,654 L-1,654 L-1,644 L-7,648 L-9,648 L-9,650 L-14,652 L-14,654 L-16,654 L-15,659 L-14,693 L-11,707 L-5,719 L-1,725 L3,729 L5,724 L9,718 L13,706 L15,693 L15,624 L17,621 L25,621 L25,605 L21,604 L22,602 L27,602 L28,604 L28,623 L27,624 L18,624 L18,699 L14,715 L9,725 L7,725 L7,728 L5,728 L3,733 L0,732 L0,730 L-2,730 L-7,723 L-12,714 L-16,701 L-18,686 L-18,652 L-13,650 L-13,648 L-9,647 L-9,645 L-4,643 L-4,641 L0,640 L1,641 L1,654 L-4,661 L-4,691 L0,702 L3,704 L5,698 L8,689 L8,623 L3,628 L-1,632 L-3,632 L-4,635 L-9,637 L-9,639 L-15,643 L-17,643 L-17,645 L-20,644 L-25,632 L-27,626 L-24,625 L-23,622 L-19,619 L-17,619 L-16,616 L-11,612 L-10,610 L-8,610 L-7,607 L-6,547 L-7,479 L-10,483 L-11,549 L-11,604 L-13,607 L-15,607 L-17,611 L-23,617 L-26,616 L-19,608 L-17,608 L-15,603 L-14,600 L-13,585 L-18,585 L-22,581 L-21,569 L-19,568 L-19,581 L-13,582 L-14,538 L-14,512 L-20,511 L-21,510 L-22,501 L-29,512 L-35,517 L-39,517 L-41,521 L-38,522 L-39,527 L-43,534 L-18,535 L-18,564 L-23,567 L-25,574 L-41,574 L-49,573 L-52,574 L-87,574 L-87,572 L-99,569 L-106,573 L-112,574 L-126,574 L-126,572 L-130,574 L-150,574 L-147,569 L-143,565 L-139,556 L-110,512 L-90,482 L-86,481 L-83,483 L-84,474 L-68,449 L-55,430 L-48,421 L-43,411 L-33,398 L-25,384 L-17,373 L-16,360 L-14,360 L-12,344 L-12,338 L-16,337 L-16,298 L-14,298 L-13,292 L-17,281 L-19,272 L-21,268 L-21,254 L-41,253 L-56,253 L-67,254 L-81,263 L-86,265 L-86,259 L-91,260 L-92,265 L-96,271 L-94,272 L-101,279 L-120,293 L-136,305 L-148,314 L-157,320 L-156,314 L-149,295 L-142,293 L-145,288 L-143,279 L-136,261 L-130,252 L-130,245 L-121,221 L-118,215 L-105,215 L-103,217 L-103,221 L-97,216 L-94,215 L-82,215 L-83,219 L-72,217 L-65,214 L-13,215 L-13,189 L-18,187 L-24,183 L-30,178 L-32,182 L-33,193 L-34,196 L-78,207 L-82,207 L-79,197 L-71,180 L-62,168 L-52,158 L-42,151 L-42,140 L-38,142 L-31,149 L-20,156 L-9,160 L-13,154 L-19,151 L-19,143 L-12,141 L-5,139 L-5,135 L-3,135 L-4,130 L-4,43 L-3,38 L-5,38 L-9,29 L-14,26 L-12,21 L-7,17 Z M263,52 L263,54 L259,56 L259,58 L255,59 L253,66 L258,75 L260,75 L262,84 L265,89 L267,89 L266,96 L268,97 L282,93 L283,91 L281,91 L280,87 L278,87 L277,83 L275,80 L270,79 L269,76 L267,76 L266,70 L264,60 L262,60 L265,54 L265,52 Z M338,56 L333,59 L333,61 L331,60 L327,57 L320,58 L317,61 L320,67 L332,69 L335,69 L335,67 L342,66 L343,62 L341,57 Z M244,71 Z M246,73 Z M247,74 Z M275,75 L276,79 L277,75 Z M303,81 Z M177,92 L152,105 L145,108 L136,113 L132,117 L126,120 L125,124 L132,125 L137,125 L137,136 L143,135 L144,142 L143,148 L140,149 L137,152 L137,154 L134,155 L134,157 L139,157 L142,155 L142,157 L146,155 L150,151 L155,138 L160,132 L158,128 L147,128 L145,129 L148,120 L148,111 L153,109 L167,101 L176,97 L180,92 Z M374,106 L374,110 L386,115 L388,115 L388,117 L369,116 L364,118 L360,123 L360,128 L371,128 L378,131 L385,134 L389,136 L381,135 L372,137 L368,138 L367,131 L366,130 L360,130 L359,135 L356,127 L352,122 L350,119 L347,119 L346,116 L339,113 L328,112 L323,111 L322,114 L323,119 L333,118 L342,121 L346,122 L347,131 L349,131 L352,146 L354,150 L355,151 L351,150 L349,156 L344,162 L342,163 L342,165 L332,168 L326,168 L325,163 L321,160 L318,160 L316,156 L314,149 L314,141 L312,143 L311,152 L312,158 L310,158 L309,162 L312,170 L319,175 L327,176 L337,176 L344,173 L351,169 L355,164 L358,161 L358,154 L362,153 L360,163 L355,168 L352,171 L352,173 L348,175 L349,177 L357,180 L363,184 L376,184 L389,178 L389,176 L380,175 L356,175 L356,173 L362,172 L368,168 L379,171 L384,174 L392,177 L399,174 L404,172 L413,170 L415,167 L412,166 L379,166 L381,163 L391,159 L399,160 L408,164 L414,165 L421,165 L428,162 L435,160 L435,158 L429,156 L416,156 L403,157 L399,157 L399,155 L407,154 L414,150 L415,147 L418,146 L418,144 L424,143 L434,140 L433,137 L420,136 L412,138 L405,136 L405,134 L414,131 L415,128 L424,124 L433,121 L436,120 L435,117 L408,117 L407,115 L414,112 L417,108 L412,107 L378,107 Z M359,101 L362,105 L365,107 L335,107 L339,110 L349,114 L354,117 L359,116 L366,112 L370,111 L370,109 L372,109 L372,107 L370,107 L370,105 L362,101 Z M423,110 L424,113 L431,115 L431,112 Z M323,124 L311,130 L305,135 L294,139 L270,140 L267,139 L253,135 L226,135 L224,136 L226,143 L229,144 L229,142 L232,143 L239,143 L254,145 L256,144 L272,147 L285,149 L287,148 L291,152 L295,161 L297,161 L297,164 L299,164 L299,167 L301,167 L303,172 L305,172 L306,175 L309,178 L312,177 L310,173 L312,173 L311,170 L309,170 L310,167 L307,164 L304,162 L300,154 L299,148 L292,148 L291,147 L299,146 L309,140 L319,135 L316,142 L316,149 L321,157 L325,160 L333,161 L341,156 L344,149 L347,143 L348,139 L345,131 L340,127 L334,124 Z M250,126 L250,128 L263,133 L267,132 L268,127 L265,128 L256,127 L251,126 Z M218,133 L217,137 L212,141 L211,151 L213,155 L212,161 L210,165 L216,163 L218,162 L218,160 L220,160 L221,156 L226,156 L227,159 L237,160 L264,160 L274,161 L278,160 L285,160 L283,155 L278,150 L271,149 L262,148 L258,149 L253,151 L241,152 L232,152 L228,153 L226,151 L225,143 L222,139 L219,133 Z M441,139 L431,142 L422,146 L420,148 L429,151 L434,155 L442,158 L445,158 L445,156 L447,156 L447,153 L444,152 L436,151 L441,147 L444,145 L446,140 Z M491,144 L487,148 L492,152 L497,157 L502,161 L506,161 L511,156 L511,153 L502,147 L495,145 Z M454,145 L446,149 L450,151 L450,153 L454,153 L454,151 L456,151 L456,153 L459,153 L458,149 L456,145 Z M490,156 L495,161 L495,165 L506,176 L508,180 L515,186 L517,186 L517,184 L520,184 L521,187 L523,187 L521,183 L518,178 L514,177 L512,173 L506,169 L501,162 L499,162 L499,160 L495,159 L495,157 Z M83,159 Z M206,159 L201,164 L201,166 L198,167 L196,173 L203,172 L203,170 L209,173 L215,178 L219,180 L218,186 L217,189 L220,192 L222,192 L222,196 L217,201 L217,204 L215,204 L214,208 L220,205 L220,203 L225,201 L237,193 L238,190 L234,187 L232,187 L232,185 L228,183 L227,181 L229,181 L230,178 L225,170 L224,167 L217,163 L217,167 L214,166 L211,168 L209,165 L207,159 Z M-9,160 Z M516,160 Z M131,161 Z M518,161 L519,165 L521,165 L523,171 L525,171 L527,176 L531,182 L533,181 L532,172 L527,165 Z M128,162 L121,167 L120,170 L123,172 L128,167 L131,162 Z M72,164 Z M227,167 L227,170 L232,175 L264,175 L288,176 L297,176 L302,177 L298,173 L293,169 L292,167 Z M553,173 L548,175 L540,176 L540,178 L537,178 L536,183 L541,188 L548,196 L549,198 L551,198 L553,203 L559,211 L561,210 L564,200 L566,187 L567,182 L561,177 L557,173 Z M231,179 L230,183 L236,184 L259,185 L284,184 L289,182 L289,180 L273,179 Z M335,178 L324,180 L326,184 L330,185 L330,187 L328,188 L335,193 L346,194 L353,192 L356,191 L356,189 L363,187 L362,185 L342,185 L343,184 L347,181 L345,181 L345,179 L341,180 L341,178 Z M532,182 Z M521,188 L519,193 L521,196 L525,197 L529,199 L530,196 L527,190 Z M89,189 Z M146,189 L140,190 L137,193 L137,195 L142,197 L138,198 L138,200 L142,204 L144,204 L150,193 L148,189 Z M535,191 L533,200 L531,201 L531,203 L536,201 L540,198 L540,195 L538,195 L536,191 Z M92,196 Z M131,199 L128,202 L128,204 L132,203 L133,200 Z M72,201 Z M94,201 Z M96,206 Z M50,251 L34,253 L34,269 L31,276 L31,293 L27,294 L22,299 L22,307 L26,309 L45,281 L52,271 L62,254 L62,253 Z M100,256 L95,260 L92,265 L78,282 L73,287 L72,291 L70,291 L67,296 L53,313 L42,327 L34,337 L31,340 L28,345 L28,364 L45,356 L51,349 L56,341 L60,339 L62,329 L70,314 L70,312 L73,311 L79,303 L81,294 L91,276 L101,258 Z M-15,303 Z M-15,306 Z M-10,307 Z M-15,309 Z M-9,309 L-9,315 L-8,315 L-8,309 Z M-15,314 Z M-8,316 Z M-15,317 Z M-10,324 Z M-8,324 Z M-11,325 Z M-12,326 L-11,329 Z M-14,327 Z M-15,328 Z M-14,329 Z M71,373 L71,378 L70,381 L72,381 L74,375 L73,373 Z M13,381 L7,384 L8,390 L10,394 L15,393 L16,392 L16,384 Z M81,385 L79,386 L79,395 L81,394 L83,385 Z M64,386 L65,390 L66,386 Z M70,388 L70,391 L74,392 L73,389 Z M61,395 L58,399 L56,407 L53,414 L50,414 L48,419 L49,423 L53,435 L52,444 L56,444 L56,447 L53,448 L49,458 L49,468 L54,478 L65,481 L63,485 L66,489 L68,489 L70,493 L73,494 L73,491 L76,490 L72,481 L70,475 L69,471 L67,469 L70,459 L70,448 L68,448 L67,455 L65,455 L64,448 L67,445 L68,440 L75,441 L76,439 L68,434 L66,424 L68,420 L73,425 L74,424 L75,416 L70,410 L67,407 L64,398 L63,395 Z M78,395 Z M89,396 L88,400 L90,402 L91,396 Z M12,404 Z M82,404 L77,407 L76,413 L78,413 L78,415 L82,416 L84,421 L86,422 L88,412 L87,408 L85,404 Z M-23,426 L-28,432 L-36,439 L-44,453 L-56,474 L-59,478 L-63,488 L-78,515 L-88,533 L-87,535 L-82,530 L-73,519 L-60,503 L-49,489 L-48,486 L-42,485 L-41,479 L-28,463 L-17,449 L-15,445 L-15,427 L-20,427 Z M22,434 Z M74,444 L71,445 L71,458 L73,467 L75,470 L77,470 L78,473 L82,472 L79,458 L76,445 Z M89,454 L86,461 L86,467 L89,470 L98,474 L101,477 L98,467 L95,459 L92,458 L90,454 Z M44,459 Z M-6,476 Z M101,477 Z M91,478 L92,487 L93,490 L100,495 L109,499 L120,500 L120,493 L118,492 L115,493 L111,491 L108,486 L105,485 L105,483 L98,480 L95,480 L95,478 Z M-15,489 L-19,495 L-19,508 L-14,509 L-14,489 Z M71,506 Z " fill="#49D49C" transform="translate(157,0)"/>
<path d="M0,0 L34,0 L36,6 L44,5 L43,0 L104,0 L108,2 L109,4 L112,4 L113,0 L239,0 L240,8 L230,16 L227,18 L223,18 L223,14 L218,14 L215,20 L220,21 L217,26 L214,30 L213,39 L213,97 L213,99 L213,195 L212,197 L213,200 L211,210 L225,207 L231,207 L233,198 L247,163 L258,136 L264,129 L266,124 L270,126 L271,128 L271,138 L269,142 L271,142 L271,148 L269,156 L269,161 L267,162 L271,167 L271,203 L269,207 L272,222 L278,221 L286,222 L285,218 L282,218 L284,214 L290,209 L291,204 L292,60 L295,59 L296,57 L292,57 L292,28 L291,26 L284,23 L277,17 L277,14 L270,12 L267,10 L268,5 L270,5 L269,1 L270,0 L323,0 L325,5 L330,0 L339,0 L357,3 L373,8 L376,13 L378,18 L378,21 L388,18 L392,19 L408,35 L416,48 L420,56 L421,63 L422,66 L424,66 L428,80 L431,104 L431,132 L429,143 L427,144 L429,147 L427,160 L420,181 L412,196 L404,206 L392,218 L385,222 L382,221 L382,219 L380,219 L380,224 L372,229 L357,234 L346,236 L336,235 L333,232 L324,230 L322,229 L321,233 L331,234 L332,237 L256,237 L254,235 L254,230 L251,235 L245,237 L193,237 L187,235 L183,235 L180,237 L121,237 L112,234 L108,234 L101,237 L5,238 L2,239 L-2,249 L-13,281 L-15,283 L-23,282 L-25,289 L-16,288 L-18,296 L-20,298 L-34,298 L-41,297 L-50,297 L-52,298 L-86,298 L-87,296 L-101,298 L-118,298 L-121,293 L-126,291 L-126,281 L-121,277 L-119,273 L-119,259 L-61,258 L-54,254 L-40,242 L-32,235 L-29,233 L-25,233 L-25,240 L-21,238 L-21,236 L-23,236 L-23,227 L-10,215 L1,206 L4,203 L5,161 L7,156 L7,148 L9,143 L9,135 L5,132 L5,51 L9,46 L11,46 L11,43 L7,42 L5,37 L4,28 L-10,13 L-11,10 L-9,10 L-7,3 Z M134,10 L132,14 L132,90 L125,90 L120,82 L112,64 L108,54 L103,47 L99,38 L99,28 L89,26 L60,27 L57,30 L56,41 L54,46 L56,50 L57,98 L60,101 L74,101 L82,94 L90,84 L95,78 L95,76 L101,76 L103,80 L103,107 L101,109 L103,113 L103,157 L102,158 L96,158 L86,145 L78,133 L73,129 L68,124 L63,123 L57,132 L56,141 L53,146 L55,151 L56,154 L57,207 L80,209 L93,206 L98,203 L101,196 L101,190 L119,150 L123,142 L127,140 L127,137 L125,137 L127,132 L127,129 L129,129 L131,139 L132,140 L132,180 L129,187 L125,192 L126,196 L128,196 L130,193 L132,196 L133,227 L144,221 L154,214 L159,208 L159,140 L162,133 L162,130 L158,130 L159,28 L156,25 L155,20 L148,19 L136,10 Z M342,29 L341,48 L339,51 L340,73 L341,76 L341,161 L340,167 L338,169 L341,176 L342,207 L347,206 L356,200 L365,189 L373,172 L377,158 L381,137 L382,134 L381,130 L380,98 L377,79 L372,62 L365,48 L357,38 L348,31 Z M-18,231 L-19,236 L-14,234 L-14,232 Z " fill="#FAF7DC" transform="translate(312,276)"/>
<path d="M0,0 L2,3 L1,10 L-10,18 L-12,18 L-12,20 L-20,25 L-21,35 L-18,38 L-4,39 L-3,43 L1,42 L2,47 L5,41 L7,39 L45,39 L43,43 L35,59 L35,61 L40,56 L47,49 L49,49 L49,47 L51,47 L51,44 L61,44 L66,47 L74,53 L74,55 L78,56 L82,62 L81,69 L76,79 L68,91 L66,91 L68,82 L72,76 L71,73 L67,71 L62,76 L59,81 L57,82 L52,91 L45,92 L43,98 L36,100 L33,109 L28,123 L36,130 L37,135 L32,133 L30,132 L30,130 L25,128 L21,125 L21,123 L17,121 L14,118 L15,114 L21,104 L23,104 L25,99 L33,88 L39,79 L43,71 L37,73 L33,79 L30,84 L24,93 L19,98 L15,102 L13,102 L12,107 L10,107 L7,116 L5,121 L5,126 L11,128 L11,130 L13,130 L13,132 L15,132 L22,143 L26,150 L26,155 L12,169 L10,169 L9,172 L-1,178 L-3,178 L-3,180 L-10,184 L-15,189 L-20,191 L-20,193 L-32,201 L-39,204 L-44,198 L-44,196 L-46,196 L-51,188 L-50,183 L-48,183 L-48,181 L-43,179 L-43,177 L-38,175 L-37,172 L-33,171 L-32,168 L-25,162 L-23,162 L-23,160 L-21,160 L-21,158 L-26,158 L-31,163 L-38,169 L-42,173 L-44,173 L-44,175 L-49,177 L-49,179 L-53,180 L-53,182 L-59,183 L-61,187 L-63,191 L-57,196 L-52,212 L-50,219 L-50,224 L-65,232 L-84,242 L-96,247 L-104,251 L-117,256 L-123,259 L-126,258 L-132,240 L-134,238 L-133,233 L-112,221 L-103,216 L-89,209 L-86,209 L-87,206 L-92,207 L-111,216 L-116,219 L-127,223 L-137,227 L-154,233 L-154,235 L-151,242 L-152,266 L-153,269 L-170,272 L-192,275 L-191,272 L-182,268 L-181,264 L-189,263 L-190,260 L-199,257 L-199,259 L-208,260 L-214,260 L-219,255 L-221,251 L-225,250 L-232,249 L-233,247 L-225,246 L-194,244 L-183,242 L-184,240 L-198,241 L-215,243 L-255,243 L-253,248 L-253,259 L-256,269 L-259,276 L-261,279 L-274,279 L-277,277 L-277,275 L-266,273 L-263,266 L-266,263 L-268,262 L-277,262 L-295,260 L-299,259 L-299,256 L-316,251 L-326,247 L-330,238 L-329,235 L-313,239 L-298,242 L-289,244 L-282,244 L-282,241 L-300,239 L-322,234 L-344,227 L-353,230 L-357,231 L-359,235 L-361,237 L-362,247 L-366,254 L-368,254 L-370,259 L-372,259 L-374,263 L-376,265 L-381,264 L-389,259 L-395,256 L-406,250 L-420,242 L-427,237 L-436,232 L-445,226 L-445,224 L-449,223 L-449,221 L-451,221 L-450,216 L-448,216 L-446,211 L-437,200 L-434,199 L-432,200 L-432,202 L-428,203 L-402,220 L-392,226 L-388,228 L-387,224 L-388,219 L-386,210 L-386,208 L-389,206 L-389,203 L-395,201 L-406,195 L-406,193 L-410,191 L-422,185 L-427,180 L-432,182 L-440,184 L-445,187 L-450,197 L-452,197 L-452,199 L-462,206 L-465,206 L-465,208 L-470,209 L-472,203 L-477,201 L-487,190 L-490,187 L-490,185 L-492,185 L-494,180 L-496,180 L-498,175 L-500,175 L-502,170 L-504,170 L-507,166 L-507,164 L-509,164 L-510,161 L-505,161 L-500,166 L-497,169 L-497,171 L-495,171 L-493,174 L-482,174 L-482,176 L-473,179 L-468,182 L-468,185 L-466,185 L-466,187 L-463,188 L-463,190 L-458,192 L-451,194 L-449,189 L-447,183 L-438,180 L-435,179 L-435,177 L-437,177 L-437,173 L-443,171 L-448,165 L-448,163 L-457,163 L-461,166 L-463,166 L-464,173 L-466,175 L-467,178 L-478,174 L-478,172 L-482,171 L-489,172 L-491,171 L-491,169 L-495,168 L-497,164 L-499,164 L-502,159 L-503,156 L-505,156 L-505,154 L-507,154 L-510,150 L-510,148 L-515,147 L-517,145 L-525,145 L-525,142 L-522,141 L-522,139 L-518,138 L-518,136 L-509,131 L-505,129 L-500,134 L-498,138 L-496,138 L-495,142 L-492,143 L-485,153 L-480,158 L-475,163 L-471,168 L-467,167 L-463,157 L-461,152 L-458,152 L-453,154 L-451,154 L-453,150 L-464,148 L-465,146 L-464,144 L-466,144 L-470,140 L-476,138 L-476,136 L-479,135 L-485,127 L-485,125 L-487,125 L-488,121 L-490,121 L-491,117 L-493,117 L-496,112 L-496,110 L-507,109 L-513,111 L-518,116 L-521,116 L-521,118 L-530,122 L-531,120 L-529,116 L-525,117 L-524,115 L-526,115 L-530,107 L-530,102 L-520,102 L-522,109 L-518,107 L-515,108 L-507,105 L-503,102 L-472,102 L-470,108 L-471,110 L-468,114 L-466,114 L-466,107 L-463,107 L-460,110 L-456,112 L-453,115 L-455,120 L-453,121 L-453,123 L-447,125 L-443,127 L-436,128 L-435,132 L-431,133 L-431,135 L-440,134 L-444,132 L-444,135 L-442,135 L-438,139 L-438,141 L-433,143 L-432,146 L-429,147 L-424,152 L-423,155 L-429,154 L-435,150 L-444,146 L-442,150 L-435,151 L-434,155 L-433,161 L-427,166 L-426,163 L-423,166 L-421,171 L-417,170 L-410,174 L-402,178 L-398,179 L-391,185 L-383,189 L-377,189 L-372,192 L-373,194 L-377,194 L-370,195 L-371,197 L-380,198 L-385,203 L-376,204 L-374,206 L-367,206 L-359,209 L-354,206 L-351,201 L-349,201 L-351,209 L-353,209 L-355,216 L-346,219 L-344,220 L-344,222 L-340,223 L-333,225 L-321,229 L-312,233 L-295,237 L-286,238 L-273,240 L-262,241 L-263,236 L-255,236 L-247,237 L-244,237 L-244,235 L-241,235 L-239,231 L-240,230 L-253,232 L-262,233 L-264,234 L-277,234 L-286,232 L-291,231 L-292,227 L-305,226 L-317,222 L-316,220 L-291,222 L-282,220 L-282,218 L-278,215 L-268,214 L-265,215 L-269,210 L-274,201 L-278,204 L-287,205 L-291,206 L-293,204 L-284,197 L-275,193 L-274,190 L-274,184 L-282,184 L-294,187 L-296,187 L-296,189 L-292,189 L-292,191 L-285,192 L-288,195 L-307,198 L-315,198 L-317,199 L-309,201 L-300,204 L-296,205 L-293,211 L-294,215 L-303,217 L-314,218 L-314,216 L-305,211 L-301,208 L-299,208 L-299,206 L-306,207 L-313,209 L-335,211 L-342,212 L-347,212 L-344,210 L-335,207 L-328,202 L-326,202 L-326,200 L-322,200 L-322,198 L-329,197 L-332,196 L-332,194 L-320,195 L-317,196 L-312,194 L-309,194 L-309,192 L-298,186 L-293,182 L-288,179 L-280,175 L-273,176 L-272,170 L-270,170 L-269,166 L-268,164 L-278,164 L-294,167 L-299,167 L-299,165 L-291,161 L-290,159 L-284,156 L-286,156 L-305,158 L-315,159 L-322,160 L-322,162 L-316,163 L-307,167 L-308,169 L-330,171 L-339,172 L-342,174 L-341,177 L-336,178 L-333,181 L-333,184 L-325,181 L-320,181 L-318,183 L-313,185 L-313,186 L-319,187 L-320,189 L-331,191 L-342,192 L-341,195 L-344,196 L-346,199 L-348,199 L-349,197 L-357,196 L-364,196 L-361,193 L-349,191 L-345,187 L-342,187 L-345,184 L-349,183 L-354,185 L-355,182 L-357,182 L-357,177 L-361,175 L-365,167 L-368,163 L-368,158 L-360,161 L-355,167 L-352,172 L-346,172 L-336,168 L-331,166 L-331,164 L-327,162 L-324,156 L-318,155 L-318,153 L-324,153 L-329,156 L-341,152 L-350,155 L-351,157 L-353,166 L-355,165 L-357,159 L-355,154 L-356,150 L-358,149 L-359,143 L-361,143 L-359,135 L-363,137 L-371,137 L-376,139 L-383,138 L-388,137 L-386,132 L-387,127 L-385,123 L-388,119 L-389,123 L-393,124 L-400,124 L-398,117 L-399,106 L-402,105 L-401,100 L-403,96 L-408,96 L-411,99 L-416,98 L-424,96 L-426,91 L-424,84 L-422,79 L-420,79 L-419,70 L-416,62 L-409,68 L-405,69 L-406,67 L-409,66 L-414,59 L-413,51 L-410,51 L-401,61 L-396,68 L-396,70 L-394,70 L-390,75 L-387,80 L-386,85 L-390,92 L-386,94 L-381,99 L-376,103 L-366,108 L-354,118 L-345,121 L-343,121 L-342,116 L-339,119 L-342,124 L-339,127 L-334,130 L-334,134 L-324,134 L-322,135 L-320,134 L-328,130 L-333,127 L-334,126 L-334,121 L-330,120 L-318,123 L-300,128 L-288,131 L-285,135 L-286,140 L-283,141 L-283,143 L-280,144 L-280,142 L-271,137 L-265,135 L-262,137 L-257,136 L-254,135 L-254,133 L-251,133 L-251,131 L-245,127 L-238,128 L-234,129 L-234,127 L-227,122 L-225,122 L-223,118 L-222,117 L-213,117 L-211,120 L-206,116 L-202,108 L-200,107 L-191,107 L-190,112 L-187,108 L-185,99 L-185,89 L-184,88 L-157,85 L-155,87 L-155,103 L-159,112 L-165,120 L-168,128 L-169,132 L-159,126 L-148,120 L-142,117 L-135,122 L-131,121 L-131,119 L-126,116 L-121,114 L-121,112 L-119,112 L-119,110 L-133,117 L-138,116 L-137,112 L-125,99 L-118,94 L-111,86 L-102,79 L-98,80 L-93,84 L-89,82 L-81,73 L-79,73 L-77,68 L-75,64 L-83,69 L-93,78 L-100,78 L-99,74 L-93,67 L-83,54 L-72,41 L-70,39 L-56,38 L-40,32 L-36,30 L-23,23 L-19,20 L-17,20 L-17,18 L-10,12 L-3,4 Z M-7,45 Z M-73,48 Z M-15,58 L-19,65 L-18,69 L-22,71 L-24,70 L-26,66 L-34,65 L-36,72 L-35,77 L-35,81 L-36,86 L-32,84 L-31,80 L-28,80 L-27,86 L-26,84 L-22,85 L-21,84 L-20,74 L-11,74 L-15,69 L-15,67 L-7,68 L-6,65 L-13,64 L-13,61 L-8,60 L-12,58 Z M-415,81 L-415,86 L-411,93 L-408,91 L-408,86 L-412,83 L-414,83 Z M-159,88 L-169,91 L-172,97 L-171,104 L-178,101 L-179,109 L-176,114 L-174,114 L-177,121 L-179,125 L-181,125 L-180,122 L-183,121 L-186,124 L-186,126 L-188,126 L-190,131 L-195,133 L-197,132 L-195,125 L-195,118 L-193,109 L-196,109 L-198,116 L-200,121 L-203,126 L-207,130 L-207,132 L-212,133 L-212,136 L-206,135 L-201,134 L-199,136 L-195,138 L-192,144 L-188,145 L-186,140 L-187,138 L-174,140 L-169,141 L-168,136 L-168,135 L-173,135 L-173,131 L-170,127 L-170,122 L-165,117 L-162,112 L-159,104 L-158,88 Z M-28,91 Z M-29,92 L-29,95 Z M-31,95 Z M-59,99 L-60,103 L-66,105 L-69,109 L-69,113 L-71,114 L-72,124 L-76,131 L-77,133 L-72,133 L-70,130 L-67,129 L-68,125 L-70,125 L-67,114 L-65,111 L-58,112 L-54,111 L-50,113 L-50,110 L-54,106 L-52,105 L-54,100 Z M-34,99 Z M-119,109 Z M-106,111 L-109,114 L-114,117 L-117,122 L-117,126 L-120,126 L-120,124 L-124,123 L-127,128 L-126,133 L-131,139 L-135,138 L-136,133 L-138,134 L-138,136 L-144,138 L-149,137 L-148,133 L-159,137 L-160,140 L-166,141 L-165,144 L-160,145 L-153,149 L-147,150 L-141,152 L-139,158 L-140,157 L-144,153 L-154,152 L-164,160 L-170,162 L-168,166 L-160,162 L-142,160 L-138,160 L-137,165 L-136,170 L-144,171 L-137,168 L-141,165 L-162,168 L-171,173 L-183,174 L-198,177 L-205,176 L-218,170 L-221,168 L-227,168 L-227,166 L-238,166 L-247,170 L-251,173 L-251,175 L-253,175 L-256,182 L-256,192 L-252,201 L-245,205 L-242,204 L-242,202 L-239,203 L-232,203 L-227,200 L-227,198 L-225,198 L-222,191 L-222,182 L-225,176 L-221,177 L-212,182 L-204,185 L-195,186 L-197,196 L-201,204 L-204,207 L-204,209 L-207,210 L-206,212 L-195,204 L-190,197 L-187,190 L-184,182 L-168,178 L-168,176 L-161,174 L-156,174 L-159,175 L-162,178 L-162,181 L-145,180 L-157,183 L-165,186 L-175,188 L-183,191 L-186,195 L-186,197 L-188,197 L-188,200 L-190,201 L-185,202 L-166,199 L-161,198 L-156,199 L-154,198 L-154,196 L-152,196 L-152,194 L-141,191 L-136,189 L-134,184 L-136,180 L-134,178 L-133,173 L-134,191 L-130,196 L-128,196 L-129,204 L-127,205 L-121,204 L-118,201 L-113,197 L-115,193 L-117,193 L-117,184 L-114,175 L-115,172 L-121,169 L-129,167 L-120,162 L-122,167 L-118,165 L-113,163 L-108,160 L-106,156 L-107,151 L-112,144 L-113,136 L-110,135 L-112,135 L-112,133 L-115,130 L-112,121 L-108,117 L-105,117 L-103,122 L-107,124 L-107,127 L-101,125 L-88,123 L-88,122 L-97,120 L-101,119 L-102,115 L-104,111 Z M-219,119 L-219,121 L-222,122 L-228,130 L-233,134 L-232,137 L-226,138 L-221,134 L-217,126 L-217,123 L-215,123 L-214,120 Z M-202,118 L-205,120 L-205,122 L-207,122 L-211,129 L-208,130 L-204,125 L-204,123 L-202,123 L-201,118 Z M-318,128 L-318,130 L-314,132 L-312,138 L-305,139 L-303,137 L-303,132 L-305,129 L-316,128 Z M-240,130 L-247,137 L-250,140 L-249,142 L-242,141 L-239,134 Z M-445,131 Z M-33,134 L-38,140 L-37,143 L-32,139 L-31,134 Z M-218,135 L-228,142 L-230,143 L-229,145 L-217,139 L-216,135 Z M-205,135 L-206,137 L-203,143 L-201,142 L-202,138 Z M-215,137 L-212,147 L-212,149 L-217,151 L-220,152 L-223,147 L-229,146 L-232,150 L-228,152 L-224,151 L-224,153 L-226,155 L-224,157 L-232,154 L-240,155 L-246,157 L-257,163 L-263,170 L-268,180 L-269,190 L-272,195 L-266,209 L-262,214 L-259,219 L-257,219 L-257,221 L-260,221 L-261,219 L-267,221 L-280,223 L-289,225 L-291,228 L-285,229 L-270,231 L-263,229 L-256,225 L-244,227 L-239,228 L-233,226 L-234,223 L-243,220 L-240,220 L-230,221 L-228,222 L-213,220 L-200,217 L-191,216 L-171,212 L-155,210 L-146,208 L-131,206 L-131,201 L-130,197 L-140,199 L-151,200 L-162,202 L-164,202 L-162,200 L-171,201 L-180,206 L-191,207 L-199,210 L-209,215 L-211,215 L-208,206 L-207,204 L-211,193 L-205,194 L-206,189 L-209,188 L-213,188 L-213,186 L-215,186 L-215,184 L-217,184 L-216,193 L-217,198 L-220,203 L-226,208 L-229,209 L-242,209 L-248,205 L-251,205 L-253,201 L-255,201 L-256,197 L-260,196 L-262,199 L-262,202 L-264,198 L-264,181 L-260,173 L-258,169 L-256,169 L-256,167 L-251,165 L-245,161 L-239,160 L-230,160 L-222,162 L-215,168 L-203,173 L-185,172 L-181,173 L-178,172 L-179,170 L-189,166 L-198,168 L-205,168 L-205,165 L-207,165 L-207,163 L-210,162 L-211,152 L-209,152 L-205,148 L-203,147 L-204,144 L-209,144 L-211,142 L-213,137 Z M-251,136 L-256,138 L-256,140 L-264,140 L-265,138 L-268,139 L-269,142 L-267,144 L-262,144 L-259,142 L-253,142 L-250,138 Z M14,138 L12,139 L11,146 L9,146 L7,144 L-5,156 L-8,159 L-9,164 L-13,164 L-17,168 L-22,170 L-28,177 L-34,187 L-41,191 L-41,197 L-39,201 L-35,201 L-35,199 L-33,199 L-33,197 L-30,196 L-27,191 L-27,189 L-23,187 L-20,185 L-20,183 L-15,181 L-1,174 L6,169 L10,164 L12,161 L18,157 L22,156 L24,151 L21,150 L19,145 L15,138 Z M-344,141 L-345,145 L-345,150 L-343,150 L-343,148 L-334,149 L-331,147 L-331,145 L-342,141 Z M-180,142 L-184,145 L-184,148 L-194,144 L-197,144 L-197,147 L-193,148 L-192,152 L-196,150 L-203,151 L-207,157 L-206,163 L-203,164 L-203,160 L-201,160 L-201,162 L-197,161 L-197,157 L-201,155 L-204,158 L-201,154 L-196,154 L-193,158 L-192,155 L-191,157 L-191,163 L-193,166 L-188,164 L-183,162 L-181,162 L-180,167 L-175,171 L-172,166 L-174,162 L-177,161 L-177,159 L-171,158 L-171,156 L-166,154 L-166,150 L-168,149 L-175,152 L-175,154 L-180,155 L-175,150 L-173,146 L-176,142 Z M-247,143 L-252,148 L-252,150 L-274,153 L-279,155 L-278,158 L-263,160 L-253,155 L-253,153 L-247,152 L-239,149 L-243,146 Z M-306,144 L-305,146 L-302,148 L-304,151 L-292,153 L-291,154 L-284,154 L-282,153 L-283,149 L-286,148 L-289,145 Z M-163,153 L-169,157 L-169,159 L-163,157 L-161,154 Z M-183,182 L-185,185 L-182,186 L-177,184 L-177,183 Z M-94,192 L-95,193 L-104,193 L-109,198 L-111,199 L-111,201 L-115,203 L-119,208 L-124,212 L-123,215 L-112,210 L-104,206 L-107,204 L-107,202 L-97,199 L-86,195 L-86,193 Z M-61,203 L-72,209 L-83,215 L-84,218 L-77,217 L-73,216 L-73,219 L-79,221 L-87,225 L-90,229 L-89,233 L-85,234 L-77,230 L-68,228 L-65,229 L-54,221 L-53,218 L-55,210 L-58,203 Z M-138,209 L-166,213 L-184,217 L-200,220 L-211,221 L-216,223 L-215,225 L-202,224 L-202,227 L-195,227 L-183,224 L-183,226 L-185,226 L-183,230 L-175,231 L-167,230 L-165,232 L-158,232 L-155,230 L-155,228 L-150,226 L-146,223 L-146,219 L-155,219 L-140,214 L-133,210 L-137,209 Z M-441,212 L-442,216 L-446,219 L-446,222 L-444,222 L-443,225 L-433,230 L-430,232 L-430,234 L-421,237 L-415,238 L-404,238 L-405,235 L-407,235 L-407,233 L-414,229 L-416,229 L-416,227 L-429,219 L-440,212 Z M-377,212 L-380,215 L-384,228 L-383,231 L-373,236 L-366,236 L-365,233 L-363,232 L-363,230 L-358,230 L-351,227 L-351,225 L-347,224 L-354,222 L-359,216 L-369,212 Z M-382,239 L-387,241 L-382,246 L-372,251 L-369,250 L-369,247 L-367,247 L-367,244 L-365,244 L-364,241 L-365,240 L-375,240 Z M-388,240 Z " fill="#49D59C" transform="translate(725,476)"/>
<path d="M0,0 L180,1 L218,1 L226,10 L225,15 L199,54 L192,56 L188,64 L185,65 L185,67 L183,67 L183,69 L181,70 L183,74 L180,75 L182,77 L181,81 L171,97 L154,122 L147,132 L141,142 L139,142 L138,145 L135,145 L134,152 L105,196 L94,212 L92,216 L91,278 L95,277 L96,265 L99,265 L98,278 L96,280 L91,280 L91,336 L95,335 L96,323 L99,324 L99,336 L96,339 L91,339 L91,352 L88,351 L88,264 L87,222 L85,225 L84,370 L88,369 L88,357 L99,357 L99,383 L84,383 L84,399 L82,401 L81,382 L83,381 L97,381 L96,360 L89,360 L90,370 L88,372 L81,371 L81,270 L80,233 L73,243 L72,254 L76,254 L76,244 L78,244 L78,256 L77,257 L72,257 L72,283 L76,283 L76,273 L78,273 L78,284 L77,285 L72,285 L72,313 L76,313 L76,303 L78,303 L78,315 L72,316 L72,345 L76,345 L76,335 L78,335 L78,347 L73,348 L72,375 L92,375 L92,364 L94,365 L94,376 L93,377 L72,377 L72,393 L71,397 L73,401 L71,404 L69,404 L68,407 L66,407 L68,402 L67,402 L62,406 L57,411 L52,415 L49,418 L49,415 L55,410 L60,405 L68,396 L69,393 L69,250 L63,259 L63,339 L62,394 L53,404 L48,408 L44,412 L45,419 L48,426 L53,425 L53,423 L57,422 L58,419 L63,417 L64,414 L72,407 L75,404 L77,404 L77,478 L72,490 L67,495 L63,488 L59,479 L58,474 L58,446 L63,440 L65,440 L65,430 L59,434 L57,434 L57,436 L52,438 L52,440 L50,440 L51,445 L52,479 L55,493 L61,505 L65,511 L69,515 L71,510 L75,504 L79,492 L81,479 L81,410 L83,407 L91,407 L91,391 L87,390 L88,388 L93,388 L94,390 L94,409 L93,410 L84,410 L84,485 L80,501 L75,511 L73,511 L73,514 L71,514 L69,519 L66,518 L66,516 L64,516 L59,509 L54,500 L50,487 L48,472 L48,438 L53,436 L53,434 L57,433 L57,431 L62,429 L62,427 L66,426 L67,427 L67,440 L62,447 L62,477 L66,488 L69,490 L71,484 L74,475 L74,409 L69,414 L65,418 L63,418 L62,421 L57,423 L57,425 L51,429 L49,429 L49,431 L46,430 L41,418 L39,412 L42,411 L43,408 L47,405 L49,405 L50,402 L55,398 L56,396 L58,396 L59,393 L60,333 L59,265 L56,269 L55,335 L55,390 L53,393 L51,393 L49,397 L43,403 L40,402 L47,394 L49,394 L51,389 L52,386 L53,371 L48,371 L44,367 L45,355 L47,354 L47,367 L53,368 L52,324 L52,298 L46,297 L45,296 L44,287 L37,298 L31,303 L27,303 L25,307 L28,308 L27,313 L23,320 L48,321 L48,350 L43,353 L41,360 L25,360 L17,359 L14,360 L-21,360 L-21,358 L-33,355 L-40,359 L-46,360 L-60,360 L-60,358 L-64,360 L-84,360 L-81,355 L-77,351 L-73,342 L-44,298 L-24,268 L-20,267 L-17,269 L-18,260 L-2,235 L11,216 L18,207 L23,197 L33,184 L41,170 L49,159 L50,146 L52,146 L54,130 L54,124 L50,123 L50,84 L52,84 L53,78 L49,67 L47,58 L45,54 L45,40 L25,39 L10,39 L-1,40 L-15,49 L-20,51 L-20,45 L-25,46 L-26,51 L-30,57 L-28,58 L-35,65 L-54,79 L-70,91 L-82,100 L-91,106 L-90,100 L-83,81 L-76,79 L-79,74 L-77,65 L-70,47 L-64,38 L-64,31 L-55,7 L-52,1 L-39,1 L-37,3 L-37,7 L-31,2 L-28,1 L-16,1 L-17,5 L-6,3 Z M116,37 L100,39 L100,55 L97,62 L97,79 L93,80 L88,85 L88,93 L92,95 L111,67 L118,57 L128,40 L128,39 Z M166,42 L161,46 L158,51 L144,68 L139,73 L138,77 L136,77 L133,82 L119,99 L108,113 L100,123 L97,126 L94,131 L94,150 L111,142 L117,135 L122,127 L126,125 L128,115 L136,100 L136,98 L139,97 L145,89 L147,80 L157,62 L167,44 Z M51,89 Z M51,92 Z M56,93 Z M51,95 Z M57,95 L57,101 L58,101 L58,95 Z M51,100 Z M58,102 Z M51,103 Z M56,110 Z M58,110 Z M55,111 Z M54,112 L55,115 Z M52,113 Z M51,114 Z M52,115 Z M79,167 L73,170 L74,176 L76,180 L81,179 L82,178 L82,170 Z M78,190 Z M43,212 L38,218 L30,225 L22,239 L10,260 L7,264 L3,274 L-12,301 L-22,319 L-21,321 L-16,316 L-7,305 L6,289 L17,275 L18,272 L24,271 L25,265 L38,249 L49,235 L51,231 L51,213 L46,213 Z M88,220 Z M60,262 Z M51,275 L47,281 L47,294 L52,295 L52,275 Z " fill="#F9F6DB" transform="translate(91,214)"/>
<path d="M0,0 L63,0 L65,2 L66,13 L71,18 L94,107 L99,126 L98,135 L102,138 L107,157 L108,162 L107,166 L104,166 L104,168 L106,168 L111,173 L120,206 L121,208 L122,220 L122,223 L125,224 L127,220 L138,222 L145,227 L144,234 L142,237 L58,237 L59,234 L63,232 L58,228 L55,228 L54,231 L48,231 L47,227 L50,222 L59,214 L61,210 L61,201 L56,189 L51,167 L51,162 L16,163 L13,173 L9,187 L6,186 L5,197 L2,213 L6,215 L15,222 L19,227 L19,237 L-22,237 L-32,233 L-33,237 L-56,237 L-60,233 L-58,227 L-49,219 L-38,211 L-34,206 L-22,166 L-14,138 L-9,130 L-10,124 L6,68 L10,55 L14,55 L14,57 L17,57 L12,50 L14,41 L16,33 L16,27 L6,18 L-1,12 L-1,1 Z M34,93 L27,116 L23,132 L38,133 L39,137 L50,137 L48,131 L44,133 L35,93 Z " fill="#FAF7DC" transform="translate(767,276)"/>
<path d="M0,0 L14,0 L18,8 L22,17 L27,22 L28,26 L22,31 L19,38 L17,38 L19,44 L19,51 L18,53 L18,62 L19,64 L19,71 L18,72 L18,82 L19,83 L19,90 L18,92 L18,101 L19,103 L19,110 L18,111 L18,121 L19,122 L19,129 L17,135 L19,135 L19,139 L23,140 L33,142 L34,143 L34,150 L26,156 L24,159 L29,158 L41,152 L53,141 L57,140 L57,151 L65,157 L69,155 L77,147 L85,140 L88,137 L90,137 L91,134 L97,129 L99,129 L99,127 L105,123 L108,124 L108,126 L110,126 L113,130 L113,132 L115,132 L118,137 L117,139 L115,138 L115,136 L106,138 L106,140 L101,143 L103,139 L107,135 L108,131 L102,132 L102,134 L98,135 L97,144 L97,148 L86,157 L86,158 L88,158 L88,156 L96,153 L105,152 L113,148 L118,145 L120,146 L119,150 L116,153 L114,153 L114,155 L109,157 L108,160 L101,165 L96,170 L91,175 L86,179 L89,188 L96,205 L96,207 L85,205 L83,204 L77,184 L71,173 L60,161 L51,154 L49,153 L50,156 L58,163 L66,172 L73,186 L77,202 L70,201 L65,184 L59,172 L49,161 L46,159 L47,163 L55,171 L61,183 L63,193 L63,199 L58,198 L54,181 L49,172 L41,164 L38,169 L24,176 L22,176 L23,178 L29,177 L39,171 L43,168 L45,172 L45,177 L35,186 L29,189 L27,189 L27,208 L28,209 L28,215 L-13,215 L-13,189 L-18,187 L-24,183 L-30,178 L-32,182 L-33,193 L-34,196 L-78,207 L-82,207 L-79,197 L-71,180 L-62,168 L-52,158 L-42,151 L-42,140 L-38,142 L-31,149 L-20,156 L-9,160 L-13,154 L-19,151 L-19,143 L-12,141 L-5,139 L-5,135 L-3,135 L-4,130 L-4,43 L-3,38 L-5,38 L-9,29 L-14,26 L-12,21 L-7,17 Z M83,159 Z M-9,160 Z M72,164 Z " fill="#598784" transform="translate(157,0)"/>
<path d="M0,0 L49,0 L50,1 L50,16 L47,23 L46,40 L42,42 L39,46 L37,46 L38,54 L41,57 L25,81 L0,118 L-1,118 L-1,107 L1,107 L3,91 L3,85 L-1,84 L-1,45 L1,45 L2,39 L-2,28 L-4,19 L-6,15 L-6,1 L-5,3 Z M0,50 Z M0,53 Z M5,54 Z M0,56 Z M6,56 L6,62 L7,62 L7,56 Z M0,61 Z M7,63 Z M0,64 Z M5,71 Z M7,71 Z M4,72 Z M3,73 L4,76 Z M1,74 Z M0,75 Z M1,76 Z " fill="#595635" transform="translate(142,253)"/>
<path d="M0,0 L4,2 L11,9 L22,16 L35,21 L36,28 L42,26 L45,23 L49,17 L52,21 L55,24 L58,31 L59,36 L54,44 L54,54 L58,57 L58,69 L70,69 L70,75 L29,75 L29,49 L24,47 L18,43 L12,38 L10,42 L9,53 L8,56 L-36,67 L-40,67 L-37,57 L-29,40 L-20,28 L-10,18 L0,11 Z " fill="#242B56" transform="translate(115,140)"/>
<path d="M0,0 L3,1 L3,3 L5,3 L8,7 L8,9 L10,9 L13,14 L12,16 L10,15 L10,13 L1,15 L1,17 L-4,20 L-2,16 L2,12 L3,8 L-3,9 L-3,11 L-7,12 L-8,21 L-8,25 L-19,34 L-19,35 L-17,35 L-17,33 L-9,30 L0,29 L8,25 L13,22 L15,23 L14,27 L11,30 L9,30 L9,32 L4,34 L3,37 L-4,42 L-9,47 L-14,52 L-19,56 L-16,65 L-9,82 L-9,84 L-20,82 L-22,81 L-28,61 L-34,50 L-45,38 L-54,31 L-56,30 L-55,33 L-47,40 L-39,49 L-32,63 L-28,79 L-35,78 L-40,61 L-46,49 L-56,38 L-59,36 L-58,40 L-50,48 L-44,60 L-42,70 L-42,76 L-47,75 L-51,58 L-56,49 L-64,41 L-67,46 L-81,53 L-83,53 L-82,55 L-76,54 L-66,48 L-62,45 L-60,49 L-60,54 L-70,63 L-76,66 L-78,66 L-78,86 L-89,86 L-90,74 L-94,71 L-94,61 L-89,53 L-90,48 L-92,45 L-92,41 L-95,40 L-98,35 L-103,43 L-104,41 L-103,35 L-105,31 L-116,29 L-115,27 L-103,27 L-103,20 L-73,20 L-73,27 L-79,28 L-80,32 L-84,39 L-85,45 L-89,45 L-87,48 L-76,45 L-66,39 L-59,32 L-51,20 L-48,17 L-48,28 L-40,34 L-36,32 L-28,24 L-20,17 L-17,14 L-15,14 L-14,11 L-8,6 L-6,6 L-6,4 Z M-22,36 Z M-33,41 Z " fill="#242B56" transform="translate(262,123)"/>
<path d="M0,0 L7,0 L11,8 L15,17 L20,22 L21,26 L15,31 L12,38 L10,38 L12,44 L12,51 L11,53 L11,62 L12,64 L12,71 L11,72 L11,82 L12,83 L12,90 L11,92 L11,101 L12,103 L12,110 L11,111 L11,121 L12,122 L12,129 L10,135 L12,135 L12,140 L11,141 L-10,141 L-6,139 L-2,139 L-2,133 L-3,131 L-3,122 L-5,121 L-2,119 L-2,113 L-5,110 L-3,110 L-3,100 L-2,95 L-3,92 L-1,92 L-2,74 L-3,72 L-3,61 L-2,56 L-2,39 L-3,32 L-10,28 L-15,27 L-15,26 L-4,26 L-9,20 L-12,17 L-9,15 L-2,15 L-1,16 Z " fill="#293653" transform="translate(164,0)"/>
<path d="M0,0 L49,0 L50,1 L50,16 L47,23 L46,40 L45,40 L45,34 L41,33 L40,29 L33,29 L30,25 L20,25 L18,30 L19,36 L11,32 L11,30 L8,30 L8,36 L8,40 L10,44 L10,51 L8,51 L8,71 L4,73 L3,76 L-1,77 L-1,45 L1,45 L2,39 L-2,28 L-4,19 L-6,15 L-6,1 L-5,3 Z M0,50 Z M0,53 Z M5,54 Z M0,56 Z M6,56 L6,62 L7,62 L7,56 Z M0,61 Z M0,64 Z M1,74 Z M0,75 Z " fill="#6D8B90" transform="translate(142,253)"/>
<path d="M0,0 L3,4 L6,7 L9,14 L10,19 L5,27 L5,37 L9,40 L9,52 L21,52 L21,58 L-20,58 L-20,32 L-25,30 L-31,26 L-37,21 L-37,14 L-36,11 L-34,10 L-32,6 L-27,8 L-17,13 L-10,14 L-10,12 L-7,11 Z " fill="#718789" transform="translate(164,157)"/>
<path d="M0,0 L1,0 L1,79 L0,134 L-9,144 L-14,148 L-18,152 L-17,159 L-14,166 L-9,165 L-9,163 L-5,162 L-4,159 L1,157 L2,154 L10,147 L13,144 L15,144 L15,218 L10,230 L5,235 L1,228 L-3,219 L-4,214 L-4,186 L1,180 L3,180 L3,170 L-3,174 L-5,174 L-5,176 L-10,178 L-10,180 L-12,180 L-11,185 L-10,219 L-7,233 L-1,245 L3,251 L7,255 L9,250 L13,244 L17,232 L19,219 L19,150 L21,147 L29,147 L29,131 L25,130 L26,128 L31,128 L32,130 L32,149 L31,150 L22,150 L22,225 L18,241 L13,251 L11,251 L11,254 L9,254 L7,259 L4,258 L4,256 L2,256 L-3,249 L-8,240 L-12,227 L-14,212 L-14,178 L-9,176 L-9,174 L-5,173 L-5,171 L0,169 L0,167 L4,166 L5,167 L5,180 L0,187 L0,217 L4,228 L7,230 L9,224 L12,215 L12,149 L7,154 L3,158 L1,158 L0,161 L-5,163 L-5,165 L-11,169 L-13,169 L-13,171 L-16,170 L-21,158 L-23,152 L-20,151 L-19,148 L-15,145 L-13,145 L-12,142 L-7,138 L-6,136 L-4,136 L-3,133 L-2,73 L-2,1 Z " fill="#45CA98" transform="translate(153,474)"/>
<path d="M0,0 L1,2 L3,2 L5,6 L10,11 L13,12 L13,14 L18,16 L24,16 L27,26 L32,26 L35,32 L35,35 L40,37 L46,39 L47,37 L49,44 L54,49 L55,59 L56,62 L54,64 L51,61 L51,59 L49,59 L46,56 L42,54 L42,52 L40,52 L37,47 L32,44 L27,45 L17,40 L15,36 L12,39 L-4,36 L-17,35 L-22,31 L-24,23 L-20,16 L-14,16 L-10,20 L-5,25 L-5,27 L-1,29 L2,31 L0,25 L-3,19 L-3,16 L4,16 L5,9 L1,7 L0,6 Z M3,32 Z " fill="#49D59C" transform="translate(662,238)"/>
<path d="M0,0 L26,0 L27,5 L27,13 L25,18 L23,28 L20,31 L19,34 L16,34 L15,38 L11,51 L9,55 L9,67 L15,69 L16,72 L7,69 L1,67 L0,61 L-1,55 L4,39 L7,26 L10,16 L11,12 L1,14 L-1,28 L-4,40 L-7,50 L-11,49 L-14,47 L-14,45 L-16,44 L-14,37 L-13,28 L-12,24 L-10,22 L-8,15 L-6,13 L-3,5 Z " fill="#49D59C" transform="translate(789,442)"/>
<path d="M0,0 L3,1 L3,3 L5,3 L8,7 L8,9 L10,9 L13,14 L12,16 L10,15 L10,13 L1,15 L1,17 L-4,20 L-2,16 L2,12 L3,8 L-3,9 L-3,11 L-7,12 L-8,21 L-8,25 L-19,34 L-19,35 L-17,35 L-17,33 L-9,30 L0,29 L8,25 L13,22 L15,23 L14,27 L11,30 L9,30 L9,32 L4,34 L3,37 L-4,42 L-9,47 L-14,52 L-21,57 L-29,46 L-32,43 L-32,41 L-36,39 L-39,35 L-28,24 L-20,17 L-17,14 L-15,14 L-14,11 L-8,6 L-6,6 L-6,4 Z M-22,36 Z " fill="#48D49B" transform="translate(262,123)"/>
<path d="M0,0 L20,0 L20,2 L16,6 L15,15 L26,14 L26,6 L22,0 L44,0 L40,5 L38,11 L39,12 L40,29 L42,35 L39,36 L24,36 L25,32 L27,19 L15,19 L17,32 L20,34 L20,36 L-1,36 L-1,34 L1,34 L3,29 L3,4 Z " fill="#FAF7DC" transform="translate(384,215)"/>
<path d="M0,0 L20,1 L30,3 L36,7 L40,12 L41,14 L41,23 L37,30 L31,34 L25,36 L16,37 L1,37 L3,32 L4,30 L4,6 L0,3 Z M17,6 L16,19 L16,32 L23,31 L28,26 L29,23 L29,14 L25,8 L21,6 Z " fill="#FAF7DC" transform="translate(689,214)"/>
<path d="M0,0 L14,0 L26,11 L29,13 L29,6 L25,2 L25,0 L43,0 L43,2 L39,2 L38,36 L30,30 L23,23 L15,16 L15,25 L17,34 L19,34 L19,36 L1,35 L4,31 L5,22 L5,4 L1,2 Z " fill="#FAF7DC" transform="translate(644,215)"/>
<path d="M0,0 L20,0 L21,4 L21,14 L17,12 L8,6 L2,7 L-2,12 L-3,15 L-3,23 L0,29 L3,31 L8,31 L9,29 L9,22 L5,18 L5,16 L23,16 L23,19 L21,21 L21,37 L-1,37 L-8,34 L-13,29 L-15,25 L-15,12 L-11,6 L-4,1 Z " fill="#FAF7DC" transform="translate(580,214)"/>
<path d="M0,0 L5,1 L7,2 L7,4 L10,4 L10,6 L13,6 L13,8 L16,8 L16,10 L19,10 L19,12 L23,13 L33,20 L35,21 L35,23 L40,25 L50,33 L56,37 L56,39 L60,40 L60,42 L65,44 L65,46 L70,48 L71,52 L67,57 L62,62 L55,69 L55,66 L61,56 L58,50 L61,49 L60,44 L55,42 L49,41 L49,39 L42,37 L40,33 L38,32 L38,30 L30,31 L24,28 L18,26 L15,24 L15,22 L11,20 L6,16 L4,15 L4,13 L-1,11 L-1,9 L-6,11 L-12,18 L-14,17 L-11,12 L-6,7 Z " fill="#49D59C" transform="translate(648,90)"/>
<path d="M0,0 L9,0 L17,3 L24,11 L25,14 L25,23 L22,30 L16,35 L11,37 L-3,37 L-11,32 L-15,27 L-16,24 L-16,14 L-12,6 L-4,1 Z M2,5 L-3,9 L-5,15 L-5,22 L-2,30 L2,33 L9,32 L12,29 L13,26 L13,11 L9,6 Z " fill="#FAF7DC" transform="translate(764,214)"/>
<path d="M0,0 L30,0 L33,2 L33,14 L31,14 L24,6 L15,4 L16,14 L25,11 L25,24 L20,22 L16,20 L16,30 L22,30 L27,25 L31,19 L33,19 L33,35 L32,36 L-2,36 L-2,34 L3,29 L3,9 L1,3 Z " fill="#FAF7DC" transform="translate(528,215)"/>
<path d="M0,0 L35,0 L35,13 L31,11 L27,6 L17,4 L18,14 L26,12 L27,13 L27,24 L18,20 L18,30 L25,30 L30,25 L34,19 L35,19 L35,34 L32,36 L1,36 L3,32 L5,28 L5,13 L4,4 Z " fill="#FAF7DC" transform="translate(429,215)"/>
<path d="M0,0 L34,0 L34,14 L27,8 L26,5 L16,4 L17,14 L26,11 L26,24 L17,20 L16,31 L27,28 L33,19 L34,19 L34,35 L33,36 L0,36 L0,34 L2,34 L4,29 L4,4 Z " fill="#FAF7DC" transform="translate(606,215)"/>
<path d="M0,0 L3,1 L25,1 L29,0 L34,2 L41,4 L41,11 L33,17 L31,20 L36,19 L48,13 L60,2 L63,1 L61,5 L54,16 L45,25 L33,31 L25,33 L23,29 L27,29 L27,23 L33,12 L30,11 L39,11 L39,4 L9,4 L9,11 L-3,12 L7,15 L10,19 L9,25 L6,29 L1,29 L-2,21 L-6,15 L-12,12 L-12,4 L-5,2 Z " fill="#BBC0E1" transform="translate(150,139)"/>
<path d="M0,0 L7,0 L11,8 L15,17 L20,22 L21,26 L15,31 L12,38 L10,38 L10,47 L1,41 L0,39 L1,37 L-2,37 L-4,31 L-10,28 L-15,27 L-15,26 L-4,26 L-9,20 L-12,17 L-9,15 L-2,15 L-1,16 Z " fill="#30355E" transform="translate(164,0)"/>
<path d="M0,0 L30,0 L30,7 L24,8 L23,12 L19,19 L18,25 L14,25 L19,33 L18,38 L16,42 L15,66 L14,66 L13,54 L9,51 L9,41 L14,33 L13,28 L11,25 L11,21 L8,20 L5,15 L0,23 L-1,21 L0,15 L-2,11 L-13,9 L-12,7 L0,7 Z " fill="#242A55" transform="translate(159,143)"/>
<path d="M0,0 L2,1 L2,3 L5,4 L8,8 L6,12 L1,16 L-6,28 L-9,44 L-15,47 L-24,49 L-28,49 L-26,38 L-21,26 L-14,15 L-5,6 L-1,3 Z " fill="#262D58" transform="translate(123,153)"/>
<path d="M0,0 L33,0 L33,13 L31,13 L25,6 L16,4 L16,14 L22,13 L25,12 L25,25 L20,22 L16,21 L15,32 L20,34 L21,36 L-1,36 L-1,34 L1,34 L3,29 L4,3 L0,1 Z " fill="#FAF7DC" transform="translate(790,215)"/>
<path d="M0,0 L37,0 L37,10 L36,12 L33,11 L30,6 L24,4 L25,28 L26,33 L28,33 L28,36 L8,36 L8,34 L10,34 L12,25 L13,4 L7,6 L1,14 L0,14 Z " fill="#FAF7DC" transform="translate(343,215)"/>
<path d="M0,0 L2,1 L6,8 L11,13 L12,15 L4,15 L1,17 L7,25 L8,27 L8,36 L8,40 L10,44 L10,51 L8,51 L8,71 L4,73 L3,76 L-1,77 L-1,45 L1,45 L2,39 L-2,28 L-4,19 L-6,15 L-6,1 L-5,3 Z M0,50 Z M0,53 Z M5,54 Z M0,56 Z M6,56 L6,62 L7,62 L7,56 Z M0,61 Z M0,64 Z M1,74 Z M0,75 Z " fill="#525763" transform="translate(142,253)"/>
<path d="M0,0 L20,0 L18,4 L17,6 L17,30 L25,29 L27,24 L31,17 L33,17 L33,35 L32,36 L0,36 L0,34 L2,34 L4,27 L4,6 L0,2 Z " fill="#FAF7DC" transform="translate(491,215)"/>
<path d="M0,0 L2,0 L2,12 L1,13 L-4,13 L-4,39 L0,39 L0,29 L2,29 L2,40 L1,41 L-4,41 L-4,69 L0,69 L0,59 L2,59 L2,71 L-4,72 L-4,101 L0,101 L0,91 L2,91 L2,103 L-3,104 L-4,131 L16,131 L16,120 L18,121 L18,132 L17,133 L-4,133 L-4,149 L-5,153 L-3,157 L-5,160 L-7,160 L-8,163 L-10,163 L-8,158 L-9,158 L-14,162 L-19,167 L-24,171 L-27,174 L-27,171 L-21,166 L-16,161 L-8,152 L-7,149 L-6,2 L-4,1 L-4,10 L0,10 Z " fill="#45CD98" transform="translate(167,458)"/>
<path d="M0,0 L1,0 L1,143 L5,142 L5,130 L16,130 L16,156 L1,156 L1,172 L-1,174 L-2,155 L0,154 L14,154 L13,133 L6,133 L7,143 L5,145 L-2,144 L-2,4 Z " fill="#31AE86" transform="translate(174,441)"/>
<path d="M0,0 L4,4 L7,9 L6,12 L-3,19 L-12,28 L-19,39 L-25,55 L-28,64 L-36,66 L-40,66 L-37,56 L-29,39 L-20,27 L-10,17 L0,10 Z " fill="#8492D9" transform="translate(115,141)"/>
<path d="M0,0 L1,0 L2,12 L4,15 L4,22 L3,23 L3,33 L4,34 L4,41 L2,47 L4,47 L4,52 L3,53 L-18,53 L-14,51 L-10,51 L-10,46 L-7,43 L-7,31 L-8,26 L-7,9 L-8,6 Z " fill="#242E53" transform="translate(172,88)"/>
<path d="M0,0 L10,0 L13,4 L20,5 L21,9 L25,10 L25,16 L20,21 L17,22 L18,30 L21,33 L17,37 L17,34 L12,33 L9,26 L9,19 L10,15 L8,15 L2,17 L0,15 L-2,18 L-2,10 L-3,6 Z " fill="#575536" transform="translate(162,277)"/>
<path d="M0,0 L5,2 L10,6 L19,11 L20,12 L21,10 L23,10 L26,15 L26,41 L25,44 L16,44 L16,20 L11,18 L5,14 L-1,9 L-1,2 Z " fill="#8390D8" transform="translate(128,169)"/>
<path d="M0,0 L3,2 L3,5 L6,6 L4,12 L5,21 L6,25 L-13,53 L-14,53 L-14,42 L-12,42 L-10,26 L-10,20 L-10,16 L-6,12 L-4,8 L-1,9 Z " fill="#575436" transform="translate(155,318)"/>
<path d="M0,0 L1,0 L4,22 L-19,31 L-20,31 L-22,9 L-11,4 L-9,4 L-6,14 L-1,12 L-1,4 L-2,1 Z " fill="#2B323C" transform="translate(173,380)"/>
<path d="M0,0 L1,0 L1,61 L5,60 L6,48 L9,48 L8,61 L6,63 L1,63 L1,119 L5,118 L6,106 L9,107 L9,119 L6,122 L1,122 L1,135 L-2,134 L-2,2 Z " fill="#1A936F" transform="translate(181,431)"/>
<path d="M0,0 L5,1 L7,11 L8,24 L11,44 L11,51 L10,54 L5,56 L2,56 L1,50 L0,39 L-1,35 L0,28 L-1,2 Z " fill="#49D59C" transform="translate(271,412)"/>
<path d="M0,0 L1,0 L1,120 L-1,123 L-3,123 L-5,127 L-11,133 L-14,132 L-7,124 L-5,124 L-3,119 L-2,116 L-1,101 L-6,101 L-10,97 L-9,85 L-7,84 L-7,97 L-1,98 L-2,54 L-2,28 L-8,27 L-9,26 L-9,14 L-7,12 L-6,24 L-2,25 L-2,3 Z " fill="#46CF99" transform="translate(145,484)"/>
<path d="M0,0 L7,0 L7,17 L5,16 L-2,16 L-4,18 L3,24 L3,26 L-3,27 L5,32 L5,37 L1,40 L-1,40 L-1,42 L-3,42 L-3,38 L-5,38 L-9,29 L-14,26 L-12,21 L-7,17 Z " fill="#9CA5DA" transform="translate(157,0)"/>
<path d="M0,0 L1,0 L1,79 L0,134 L-9,144 L-14,148 L-18,152 L-20,151 L-15,145 L-13,145 L-12,142 L-7,138 L-6,136 L-4,136 L-3,133 L-2,73 L-2,1 Z " fill="#42C995" transform="translate(153,474)"/>
<path d="M0,0 L5,2 L15,7 L22,8 L22,6 L25,7 L23,12 L29,22 L29,31 L25,34 L24,46 L22,46 L21,21 L19,16 L17,16 L16,19 L12,16 L3,11 L-4,6 Z " fill="#393F66" transform="translate(132,163)"/>
<path d="M0,0 L2,0 L2,2 L10,3 L20,3 L23,6 L27,17 L28,21 L10,21 L7,14 L3,9 Z " fill="#49D59C" transform="translate(783,251)"/>
<path d="M0,0 L5,2 L11,6 L16,11 L16,13 L20,14 L20,16 L25,18 L31,22 L31,24 L36,25 L42,29 L42,31 L40,31 L39,35 L34,33 L30,31 L30,29 L26,28 L21,23 L18,20 L14,18 L5,11 L5,9 L1,7 L0,6 Z " fill="#49D59C" transform="translate(340,559)"/>
<path d="M0,0 L1,0 L1,10 L-1,10 L2,12 L2,18 L0,20 L1,20 L1,31 L2,33 L1,38 L-8,40 L-9,39 L-9,34 L-7,34 L-8,29 L-8,5 L-5,5 Z " fill="#6BA09D" transform="translate(161,101)"/>
<path d="M0,0 L0,3 L-9,16 L-17,24 L-29,30 L-37,32 L-39,28 L-35,28 L-35,22 L-33,20 L-23,17 L-13,11 L-3,2 Z " fill="#8692D9" transform="translate(212,140)"/>
<path d="M0,0 L1,0 L2,12 L4,15 L4,22 L3,23 L2,37 L-7,31 L-8,26 L-8,6 Z " fill="#252F53" transform="translate(172,49)"/>
<path d="M0,0 L23,0 L24,1 L24,16 L23,14 L18,17 L5,16 L11,7 L11,6 L-2,6 L-3,3 Z " fill="#6F8B90" transform="translate(168,253)"/>
<path d="M0,0 L7,6 L12,12 L16,21 L17,34 L9,33 L6,17 L3,6 L-5,12 L-13,16 L-18,15 L-18,13 L-2,5 Z " fill="#8391D9" transform="translate(197,163)"/>
<path d="M0,0 L1,0 L1,11 L8,11 L7,1 L10,2 L10,13 L2,14 L1,37 L7,37 L7,27 L9,27 L10,39 L7,40 L2,40 L1,66 L-3,83 L-4,85 L-6,85 L-5,76 L-3,67 L-2,59 L-2,38 L-1,1 Z " fill="#43C797" transform="translate(181,632)"/>
<path d="M0,0 L5,2 L15,11 L23,20 L30,34 L33,45 L33,50 L28,49 L26,43 L21,28 L15,18 L6,8 L0,3 Z " fill="#8390DA" transform="translate(206,153)"/>
<path d="M0,0 L1,0 L2,19 L2,56 L6,55 L6,43 L17,43 L17,69 L2,69 L2,85 L0,87 L-1,68 L1,67 L15,67 L14,46 L7,46 L8,56 L6,58 L-1,57 Z " fill="#47D199" transform="translate(173,528)"/>
<path d="M0,0 L2,0 L2,12 L1,13 L-4,13 L-4,39 L0,39 L0,29 L2,29 L2,40 L1,41 L-4,41 L-4,69 L0,69 L0,59 L2,59 L2,71 L-4,72 L-5,82 L-6,82 L-6,2 L-4,1 L-4,10 L0,10 Z " fill="#37BB8B" transform="translate(167,458)"/>
<path d="M0,0 L4,2 L6,6 L13,4 L15,2 L19,2 L17,6 L3,27 L0,25 L-1,16 L1,10 L-1,9 L-2,2 L0,2 Z " fill="#2C333C" transform="translate(159,314)"/>
<path d="M0,0 L3,3 L3,5 L-5,12 L-11,19 L-17,31 L-22,48 L-28,49 L-26,38 L-21,26 L-14,15 L-5,6 L-1,3 Z " fill="#838FDA" transform="translate(123,153)"/>
<path d="M0,0 L2,0 L4,5 L4,21 L4,24 L3,29 L0,33 L-2,33 L-2,37 L-6,35 L-6,11 L-3,10 L-3,8 L1,7 Z " fill="#5D8F86" transform="translate(159,71)"/>
<path d="M0,0 L2,1 L6,8 L11,13 L12,15 L4,15 L1,17 L7,25 L8,31 L6,31 L4,26 L-1,25 L-6,15 L-6,1 L-5,3 Z " fill="#6D8C91" transform="translate(142,253)"/>
<path d="M0,0 L3,4 L6,7 L9,14 L10,19 L4,28 L3,38 L0,41 L-1,26 L-5,20 L-4,18 L-1,22 L-1,1 Z " fill="#905221" transform="translate(164,157)"/>
<path d="M0,0 L3,4 L8,2 L10,0 L11,5 L10,7 L10,14 L13,21 L17,22 L18,26 L11,29 L9,31 L3,31 L0,27 L1,23 L4,23 L4,26 L9,25 L6,21 L3,8 L0,4 Z " fill="#585535" transform="translate(162,289)"/>
<path d="M0,0 L3,2 L3,7 L5,10 L10,12 L28,16 L37,20 L46,22 L46,24 L34,23 L13,17 L4,15 L-3,13 L-2,4 Z " fill="#49D59C" transform="translate(386,726)"/>
<path d="M0,0 L2,1 L2,50 L6,49 L7,37 L10,38 L10,50 L7,53 L2,53 L2,66 L-1,65 Z " fill="#3CC290" transform="translate(180,500)"/>
<path d="M0,0 L6,4 L15,14 L22,28 L24,36 L24,42 L19,41 L14,23 L9,13 L0,4 Z " fill="#919CDD" transform="translate(202,158)"/>
<path d="M0,0 L1,0 L1,28 L-8,28 L-8,25 L-6,25 L-6,5 Z " fill="#CACDE7" transform="translate(152,185)"/>
<path d="M0,0 L2,0 L3,4 L7,5 L7,11 L2,16 L-1,17 L0,25 L3,28 L-1,32 L-1,29 L-6,28 L-7,24 L-6,12 L-5,12 L-4,17 L-1,7 L-6,8 L-5,5 L-1,5 Z " fill="#0E1113" transform="translate(180,282)"/>
<path d="M0,0 L1,0 L1,22 L-3,18 L1,24 L1,38 L-2,35 L-3,26 L-9,16 L-7,11 L-1,1 Z " fill="#E6D476" transform="translate(163,159)"/>
<path d="M0,0 L4,3 L2,7 L-3,11 L-10,23 L-13,39 L-18,41 L-18,32 L-14,20 L-8,11 L-1,4 Z " fill="#8692DA" transform="translate(127,158)"/>
<path d="M0,0 L3,3 L8,15 L11,22 L11,26 L9,26 L9,28 L5,30 L2,20 L-2,10 L-3,1 Z " fill="#49D59C" transform="translate(284,468)"/>
<path d="M0,0 L7,1 L13,4 L12,6 L10,6 L8,11 L7,14 L2,15 L2,17 L-2,16 L-2,14 L-4,14 L-3,6 L-3,2 Z " fill="#49D59C" transform="translate(351,616)"/>
<path d="M0,0 L1,0 L4,22 L-3,23 L-3,19 L-7,18 L-8,20 L-16,21 L-11,10 L-11,4 L-9,4 L-6,14 L-1,12 L-1,4 L-2,1 Z " fill="#24323A" transform="translate(173,380)"/>
<path d="M0,0 L5,2 L8,13 L8,20 L4,22 L3,25 L-1,26 L-1,2 Z M0,2 Z M0,5 Z M0,10 Z M0,13 Z M1,23 Z M0,24 Z " fill="#E5E7E7" transform="translate(142,304)"/>
<path d="M0,0 L1,0 L1,43 L0,43 L-1,54 L-2,54 L-2,28 L-8,27 L-9,26 L-9,14 L-7,12 L-6,24 L-2,25 L-2,3 Z " fill="#2FAC83" transform="translate(145,484)"/>
<path d="M0,0 L23,0 L23,7 L0,7 Z " fill="#212753" transform="translate(166,143)"/>
<path d="M0,0 L4,4 L7,9 L6,12 L-3,19 L-12,28 L-16,25 L-14,21 L-5,13 L0,10 Z " fill="#C2C6E3" transform="translate(115,141)"/>
<path d="M0,0 L6,2 L7,4 L9,2 L11,9 L12,13 L10,24 L4,24 L3,22 L3,8 Z " fill="#30343D" transform="translate(148,289)"/>
<path d="M0,0 L3,3 L4,8 L13,8 L19,10 L24,12 L28,14 L28,15 L14,17 L9,18 L8,15 L5,14 L6,11 L4,11 L4,9 L2,9 L1,12 Z " fill="#49D59C" transform="translate(517,140)"/>
<path d="M0,0 L7,1 L17,5 L18,7 L8,8 L-16,8 L-15,5 Z " fill="#49D59C" transform="translate(550,139)"/>
<path d="M0,0 L7,1 L3,2 L8,10 L7,15 L5,19 L4,43 L3,43 L2,31 L-2,28 L-2,18 L3,10 L2,5 Z " fill="#42466F" transform="translate(170,166)"/>
<path d="M0,0 L7,0 L7,17 L5,16 L-5,16 L-4,9 Z " fill="#C8CCE5" transform="translate(157,0)"/>
<path d="M0,0 L2,0 L2,12 L3,14 L-7,29 L-8,29 L-8,18 L-6,18 L-4,2 L-2,3 Z " fill="#525B65" transform="translate(149,342)"/>
<path d="M0,0 L7,2 L16,5 L15,7 L3,9 L-11,10 L-10,13 L-15,12 L-16,10 L-5,4 Z " fill="#49D59C" transform="translate(420,644)"/>
<path d="M0,0 L2,1 L-1,3 Z M28,0 L30,0 L29,4 L22,10 L20,10 L19,13 L14,15 L14,17 L8,21 L6,21 L6,23 L3,22 L-2,10 L-4,4 L0,4 L5,18 L10,17 L10,15 L14,14 L15,11 L20,9 L21,6 Z " fill="#45CA98" transform="translate(134,622)"/>
<path d="M0,0 L9,1 L14,6 L13,12 L10,16 L5,16 L2,5 Z " fill="#8592DA" transform="translate(146,152)"/>
<path d="M0,0 L5,1 L18,6 L18,8 L13,8 L12,7 L6,7 L-3,10 L-10,8 L-11,6 L-9,6 L-9,4 Z " fill="#49D59C" transform="translate(550,119)"/>
<path d="M0,0 L1,0 L2,16 L4,16 L5,25 L-3,25 L-12,18 L-9,15 L-2,15 L-1,16 Z " fill="#3B4169" transform="translate(164,0)"/>
<path d="M0,0 L2,1 L2,8 L0,14 L2,14 L2,19 L1,20 L-20,20 L-16,18 L-12,18 L-12,13 L-4,13 L-2,11 L-2,5 Z " fill="#292F58" transform="translate(174,121)"/>
<path d="M0,0 L3,1 L25,1 L29,0 L34,2 L41,4 L41,11 L33,17 L29,22 L30,17 L33,12 L30,11 L39,11 L39,4 L8,4 L-3,3 Z " fill="#B4BAD2" transform="translate(150,139)"/>
<path d="M0,0 L2,0 L1,6 L0,9 L-1,26 L-2,26 L-2,20 L-6,19 L-7,15 L-10,15 L-9,10 L-2,2 Z " fill="#899192" transform="translate(189,267)"/>
<path d="M0,0 L1,0 L1,45 L0,43 L-2,43 L-2,4 Z " fill="#1D9772" transform="translate(174,441)"/>
<path d="M0,0 L16,1 L15,5 L11,12 L16,12 L16,16 L5,16 L11,7 L11,6 L-2,6 L-3,3 Z " fill="#638085" transform="translate(168,253)"/>
<path d="M0,0 L2,0 L6,4 L5,8 L1,10 L12,15 L9,18 L6,19 L-3,16 L-2,12 L-4,9 L-3,4 L-1,3 Z M-2,7 L-2,9 L0,9 L0,7 Z " fill="#49D59C" transform="translate(334,631)"/>
<path d="M0,0 L4,1 L4,5 L6,6 L-12,13 L-13,13 L-13,7 L-10,4 L-7,4 L-7,2 Z " fill="#303B43" transform="translate(166,398)"/>
<path d="M0,0 L1,0 L1,66 L0,66 L-1,40 L-2,40 L-2,1 Z " fill="#2BA480" transform="translate(153,474)"/>
<path d="M0,0 L4,1 L0,2 L2,7 L4,6 L6,2 L9,3 L10,1 L11,5 L9,11 L4,14 L-2,14 L-5,11 L-2,10 L-3,4 Z " fill="#49D59C" transform="translate(445,117)"/>
<path d="M0,0 L0,3 L-9,16 L-15,22 L-17,21 L-16,19 L-20,18 L-19,15 L-8,7 Z " fill="#B6BED9" transform="translate(212,140)"/>
<path d="M0,0 L1,0 L1,11 L8,11 L7,1 L10,2 L10,13 L2,14 L1,36 L-1,38 L-1,1 Z " fill="#48D39B" transform="translate(181,632)"/>
<path d="M0,0 L6,0 L13,4 L15,8 L15,15 L11,22 L7,24 L1,24 L2,21 L8,17 L9,13 L12,13 L11,5 L6,3 L0,1 Z " fill="#49D59C" transform="translate(484,131)"/>
<path d="M0,0 L7,1 L13,5 L13,10 L9,13 L7,13 L7,15 L5,15 L5,11 L3,11 L1,2 Z " fill="#8894D7" transform="translate(149,27)"/>
<path d="M0,0 L2,0 L5,5 L5,31 L4,31 L3,7 L-2,11 L-3,31 L-5,31 L-5,6 Z " fill="#7A8DBB" transform="translate(149,179)"/>
<path d="M0,0 L3,0 L3,19 L4,21 L4,33 L1,35 L-1,32 L-1,23 L-3,22 L0,20 L0,14 L-3,11 L-1,11 L-1,1 Z " fill="#3C4E64" transform="translate(162,99)"/>
<path d="M0,0 L2,1 L2,12 L6,13 L7,18 L6,24 L3,24 L1,17 L-2,16 L-2,13 L-4,13 L-2,6 Z " fill="#49D59C" transform="translate(306,587)"/>
<path d="M0,0 L4,2 L8,16 L8,21 L3,20 L1,14 L-2,3 Z " fill="#838FD9" transform="translate(231,182)"/>
<path d="M0,0 L7,2 L8,5 L7,7 L1,7 L-2,8 L-3,11 L-5,11 L-6,9 L-7,11 L-7,16 L-10,13 L-8,6 L-3,1 Z M-6,7 Z " fill="#49D59C" transform="translate(485,134)"/>
<path d="M0,0 L2,0 L7,9 L12,11 L14,14 L15,19 L7,19 L3,11 L3,8 L1,8 L-1,1 Z " fill="#49D59C" transform="translate(728,312)"/>
<path d="M0,0 L2,4 L5,11 L4,15 L-2,15 L-6,10 L-5,3 Z " fill="#49D59C" transform="translate(219,425)"/>
<path d="M0,0 L2,0 L2,12 L1,13 L-4,13 L-4,33 L-6,34 L-6,2 L-4,1 L-4,10 L0,10 Z " fill="#219F74" transform="translate(167,458)"/>
<path d="M0,0 L4,1 L5,11 L1,10 L0,15 L-7,20 L-9,20 L-9,13 L-4,12 L-3,8 L-1,7 Z " fill="#99986C" transform="translate(150,317)"/>
<path d="M0,0 L4,1 L6,5 L9,0 L11,0 L11,12 L9,12 L9,9 L7,9 L7,12 L2,11 L0,12 Z " fill="#FAF7DC" transform="translate(853,276)"/>
<path d="M0,0 L1,0 L1,10 L-1,10 L-1,16 L-5,19 L-7,19 L-8,5 L-5,5 Z " fill="#6BAA94" transform="translate(161,101)"/>
<path d="M0,0 L4,0 L3,2 L3,6 L7,12 L6,14 L4,16 L-3,16 L-5,14 L-7,18 L-8,15 L-6,15 L-4,10 L-1,6 Z " fill="#7C969B" transform="translate(164,253)"/>
<path d="M0,0 L1,0 L1,10 L-1,10 L-1,16 L-5,17 L-5,19 L-7,19 L-8,5 L-5,5 Z " fill="#72B29C" transform="translate(161,62)"/>
<path d="M0,0 L5,2 L15,7 L20,9 L19,13 L12,12 L2,6 L-1,4 Z " fill="#97A1DE" transform="translate(132,163)"/>
<path d="M0,0 L1,0 L2,18 L-7,12 L-8,7 Z " fill="#173333" transform="translate(172,107)"/>
<path d="M0,0 L1,0 L2,18 L-7,12 L-8,7 Z " fill="#133528" transform="translate(172,68)"/>
<path d="M0,0 L1,0 L2,18 L-6,12 L-8,6 Z " fill="#163232" transform="translate(172,88)"/>
<path d="M0,0 L20,0 L20,3 L18,4 L7,4 L9,9 L6,9 L1,4 Z " fill="#769196" transform="translate(143,253)"/>
<path d="M0,0 L5,5 L8,18 L10,22 L5,23 L5,20 L0,19 L1,15 L2,14 L1,5 Z " fill="#69888D" transform="translate(161,292)"/>
<path d="M0,0 L1,0 L2,15 L-2,15 L-8,11 L-8,6 Z " fill="#163232" transform="translate(172,49)"/>
<path d="M0,0 L3,0 L4,5 L4,17 L3,22 L3,37 L-1,35 L-1,24 L0,19 Z " fill="#334456" transform="translate(162,37)"/>
<path d="M0,0 L7,0 L10,3 L8,9 L7,13 L3,12 L1,8 L-1,5 Z " fill="#49D59C" transform="translate(447,95)"/>
<path d="M0,0 L7,1 L8,8 L4,18 L1,18 L-2,8 L-1,1 Z M3,2 L0,4 L1,12 L4,12 L6,5 Z " fill="#46CD99" transform="translate(156,673)"/>
<path d="M0,0 L4,1 L14,7 L21,9 L21,11 L19,11 L18,15 L14,12 L5,7 L-2,2 Z " fill="#3F446F" transform="translate(130,167)"/>
<path d="M0,0 L3,1 L4,10 L2,16 L-4,17 L-2,6 Z " fill="#7F8DD5" transform="translate(99,185)"/>
<path d="M0,0 L2,1 L1,14 L-1,16 L-6,16 L-6,23 L-8,22 L-8,2 L-6,3 L-6,14 L-2,13 L-1,1 Z " fill="#29AE7C" transform="translate(188,478)"/>
<path d="M0,0 L6,4 L15,14 L17,18 L14,21 L7,11 L0,4 Z " fill="#828ED8" transform="translate(202,158)"/>
<path d="M0,0 L7,0 L7,7 L21,7 L21,8 L-13,9 L-12,7 L0,7 Z " fill="#484D76" transform="translate(159,143)"/>
<path d="M0,0 L3,3 L-2,11 L-7,10 L-11,5 L-10,1 L-1,2 Z " fill="#67858A" transform="translate(169,266)"/>
<path d="M0,0 L3,1 L2,6 L0,9 L-2,9 L-3,12 L-13,12 L-8,7 L-6,7 L-4,3 Z " fill="#49D59C" transform="translate(330,260)"/>
<path d="M0,0 L4,5 L5,9 L1,15 L-4,10 L-3,4 Z " fill="#FAF7DC" transform="translate(768,225)"/>
<path d="M0,0 L2,0 L2,2 L6,4 L8,5 L8,7 L10,8 L11,10 L11,17 L9,18 L9,13 L5,12 L3,11 L0,4 Z " fill="#49D59C" transform="translate(768,295)"/>
<path d="M0,0 L4,1 L7,4 L6,10 L4,12 L0,12 L-2,6 L-1,1 Z " fill="#2B2F37" transform="translate(165,281)"/>
<path d="M0,0 L3,1 L0,11 L-1,18 L-5,18 L-6,15 L-6,8 L-4,1 Z " fill="#393D3B" transform="translate(177,288)"/>
<path d="M0,0 L10,2 L15,4 L15,5 L-6,7 L-10,7 L-10,5 L-4,3 Z " fill="#49D59C" transform="translate(505,747)"/>
<path d="M0,0 L6,0 L7,2 L7,21 L4,22 L4,20 L-4,20 L-4,19 L4,19 L4,3 L0,2 Z " fill="#40C096" transform="translate(178,602)"/>
<path d="M0,0 L2,1 L1,10 L-2,14 L-7,12 L-6,7 L-4,2 Z " fill="#49D59C" transform="translate(753,363)"/>
<path d="M0,0 L1,0 L1,28 L-8,28 L-8,25 L-6,25 L-6,5 L-5,5 L-5,24 L0,24 Z " fill="#D6D8ED" transform="translate(152,185)"/>
<path d="M0,0 L8,6 L13,14 L13,18 L11,18 L9,13 L4,12 L0,4 Z " fill="#E1E3E4" transform="translate(137,266)"/>
<path d="M0,0 L2,4 L-7,11 L-13,14 L-18,13 L-18,11 L-2,3 Z " fill="#4958B7" transform="translate(197,165)"/>
<path d="M0,0 L2,0 L2,11 L1,12 L-4,12 L-4,22 L-5,30 L-6,30 L-6,5 L-4,4 L-4,10 L0,10 Z " fill="#2CAF80" transform="translate(167,487)"/>
<path d="M0,0 L2,0 L3,4 L-2,9 L-3,12 L0,15 L-6,16 L-7,15 L-7,6 L-4,5 L-4,3 Z " fill="#6BAC97" transform="translate(160,37)"/>
<path d="M0,0 L3,3 L3,5 L-5,12 L-11,19 L-14,22 L-12,15 L-10,11 L-1,3 Z " fill="#C7CBE8" transform="translate(123,153)"/>
<path d="M0,0 L1,0 L2,15 L2,37 L1,39 L-1,39 Z " fill="#3CC18F" transform="translate(144,512)"/>
<path d="M0,0 L2,1 L5,6 L6,13 L2,14 L0,16 L-5,16 L-4,9 L2,10 Z " fill="#49D59C" transform="translate(776,256)"/>
<path d="M0,0 L2,1 L2,7 L4,7 L4,12 L0,16 L-2,14 L-3,5 Z " fill="#3A3C33" transform="translate(161,325)"/>
<path d="M0,0 L3,0 L3,8 L-1,12 L-2,17 L-3,17 L-4,5 L-4,1 Z " fill="#505461" transform="translate(149,333)"/>
<path d="M0,0 L1,0 L2,5 L5,6 L6,13 L9,16 L5,20 L5,17 L0,16 L-1,12 Z " fill="#1A2126" transform="translate(174,294)"/>
<path d="M0,0 L11,0 L12,2 L6,4 L5,6 L0,7 L-5,5 L-4,2 Z " fill="#49D59C" transform="translate(487,649)"/>
<path d="M0,0 L1,2 L6,2 L8,4 L8,8 L10,8 L10,13 L4,10 L0,5 Z " fill="#9D9D74" transform="translate(140,276)"/>
<path d="M0,0 L4,3 L2,7 L-3,11 L-10,23 L-11,20 L-7,13 L-7,10 L-1,4 Z " fill="#B7BCE4" transform="translate(127,158)"/>
<path d="M0,0 L3,1 L3,7 L-2,12 L-4,17 L-7,13 L-6,8 L-2,5 L0,5 Z " fill="#69AD93" transform="translate(160,112)"/>
<path d="M0,0 L7,0 L7,17 L2,15 L4,1 Z " fill="#8592DB" transform="translate(157,0)"/>
<path d="M0,0 L10,0 L8,5 L7,12 L4,12 L2,3 L0,2 Z " fill="#FAF7DC" transform="translate(841,276)"/>
<path d="M0,0 L4,4 L4,17 L-1,17 Z " fill="#49D59C" transform="translate(686,221)"/>
<path d="M0,0 L2,1 L2,5 L5,4 L7,6 L7,12 L4,13 L3,15 L1,15 Z " fill="#79B8A4" transform="translate(153,86)"/>
<path d="M0,0 L2,0 L1,5 L0,9 L2,9 L0,15 L-3,16 L-4,2 Z " fill="#575965" transform="translate(155,387)"/>
<path d="M0,0 L9,5 L9,18 L8,18 L6,9 L2,6 L0,7 Z " fill="#A29C6C" transform="translate(141,298)"/>
<path d="M0,0 L3,1 L6,9 L6,14 L1,15 L0,10 L1,5 Z " fill="#49D59C" transform="translate(766,324)"/>
<path d="M0,0 L2,1 L5,12 L5,17 L0,16 L-1,15 L-1,10 L2,10 Z " fill="#AEB5DF" transform="translate(234,186)"/>
<path d="M0,0 L14,0 L14,1 L2,2 L1,18 L-1,20 L-2,1 Z " fill="#45CB98" transform="translate(174,595)"/>
<path d="M0,0 L12,0 L12,5 L0,4 Z " fill="#6C3B1E" transform="translate(173,210)"/>
<path d="M0,0 L6,1 L8,5 L7,12 L5,11 L4,8 L1,6 Z " fill="#49D59C" transform="translate(719,268)"/>
<path d="M0,0 L3,1 L26,2 L22,4 L8,4 L-3,3 Z " fill="#C2C5DF" transform="translate(150,139)"/>
<path d="M0,0 L3,0 L2,5 L-2,9 L-10,9 L-10,7 L-4,5 Z " fill="#49D59C" transform="translate(496,664)"/>
<path d="M0,0 L5,2 L6,7 L-1,9 L-2,8 L-2,3 L0,3 Z " fill="#B6BCE1" transform="translate(154,132)"/>
<path d="M0,0 L2,0 L4,5 L3,10 L-3,14 L-5,14 L-5,10 L-3,10 L-3,8 L1,7 Z " fill="#67AA92" transform="translate(159,71)"/>
<path d="M0,0 L8,0 L1,11 L0,11 Z " fill="#9C9C72" transform="translate(141,360)"/>
<path d="M0,0 L4,0 L2,4 L-3,11 L-5,10 L-5,5 Z " fill="#272A30" transform="translate(174,316)"/>
<path d="M0,0 L1,4 L-1,15 L-7,15 L-7,10 L-5,10 L-4,7 L-3,12 L-2,4 Z " fill="#2B2F37" transform="translate(159,298)"/>
<path d="M0,0 L1,2 L3,2 L4,11 L-1,13 L-1,4 Z " fill="#7D8AD2" transform="translate(110,186)"/>
<path d="M0,0 L5,2 L11,7 L12,11 L9,11 L0,3 Z " fill="#808CD5" transform="translate(206,153)"/>
<path d="M0,0 L2,1 L2,12 L0,13 L-20,12 L-20,11 L0,11 Z " fill="#43C597" transform="translate(183,578)"/>
<path d="M0,0 L1,0 L1,13 L7,14 L6,17 L1,16 L-2,13 L-1,1 Z " fill="#45CB98" transform="translate(137,568)"/>
<path d="M0,0 L3,0 L3,14 L-3,12 L-1,11 L-1,1 Z " fill="#424E70" transform="translate(162,99)"/>
<path d="M0,0 L5,0 L9,4 L9,9 L0,3 Z " fill="#133528" transform="translate(165,38)"/>
<path d="M0,0 L3,0 L3,14 L-1,12 L-1,1 Z " fill="#414A70" transform="translate(162,60)"/>
<path d="M0,0 L4,1 L5,11 L0,9 Z " fill="#6F8C91" transform="translate(150,317)"/>
<path d="M0,0 L1,2 L-4,15 L-6,14 L-8,8 L-5,5 L-2,5 Z " fill="#939DDA" transform="translate(108,175)"/>
<path d="M0,0 L8,0 L8,5 L0,5 Z " fill="#CED1E7" transform="translate(145,144)"/>
<path d="M0,0 L2,0 L3,4 L7,5 L7,11 L4,12 L3,6 L-1,5 Z " fill="#333324" transform="translate(180,282)"/>
<path d="M0,0 L1,0 L0,7 L-6,10 L-8,7 Z " fill="#113326" transform="translate(172,107)"/>
<path d="M0,0 L2,1 L1,17 L-1,17 L-2,14 L-2,7 Z " fill="#303333" transform="translate(173,289)"/>
<path d="M0,0 L1,0 L1,5 L-2,8 L-9,8 L-4,3 Z " fill="#113426" transform="translate(172,127)"/>
<path d="M0,0 L1,0 L1,5 L-5,10 L-8,7 Z " fill="#113325" transform="translate(172,68)"/>
<path d="M0,0 L2,1 L3,8 L-4,9 L-2,3 Z " fill="#17191B" transform="translate(174,394)"/>
<path d="M0,0 L2,3 L2,10 L-6,9 L-6,6 L0,6 Z " fill="#BDC5E3" transform="translate(212,187)"/>
<path d="M0,0 L1,0 L1,14 L-3,9 L-4,7 Z " fill="#EAD87C" transform="translate(163,167)"/>
<path d="M0,0 L7,1 L10,4 L11,8 L7,14 L6,12 L7,6 L5,2 L0,1 Z " fill="#3A3F66" transform="translate(152,152)"/>
<path d="M0,0 L4,1 L4,3 L2,5 L1,7 L-5,8 L-3,3 Z " fill="#242730" transform="translate(161,401)"/>
<path d="M0,0 L1,0 L1,10 L-5,6 L-3,2 Z " fill="#ABB2E5" transform="translate(161,121)"/>
<path d="M0,0 L5,0 L6,4 L9,5 L10,8 L5,8 Z " fill="#49D59C" transform="translate(427,103)"/>
<path d="M0,0 L5,2 L7,6 L6,10 L3,10 Z " fill="#49D59C" transform="translate(310,579)"/>
<path d="M0,0 L4,2 L4,5 L2,12 L0,8 L-2,2 L0,2 Z " fill="#49D59C" transform="translate(740,336)"/>
<path d="M0,0 L3,1 L5,12 L2,10 L0,13 L0,5 L-1,1 Z M0,2 Z " fill="#585B41" transform="translate(160,282)"/>
<path d="M0,0 L2,1 L3,14 L3,17 L-1,17 L-4,12 L-3,10 L0,14 Z " fill="#A26A35" transform="translate(163,165)"/>
<path d="M0,0 L5,0 L5,7 L0,7 Z " fill="#828FDA" transform="translate(154,143)"/>
<path d="M0,0 L1,0 L1,10 L-4,7 L-5,5 Z " fill="#ACB4E6" transform="translate(161,101)"/>
<path d="M0,0 L4,2 L6,3 L6,9 L-2,3 Z " fill="#123527" transform="translate(168,97)"/>
<path d="M0,0 L1,0 L1,9 L-4,7 L-4,3 Z " fill="#ADB4E6" transform="translate(161,82)"/>
<path d="M0,0 L1,0 L1,10 L-4,7 L-5,5 Z " fill="#ACB4E6" transform="translate(161,62)"/>
<path d="M0,0 L2,2 L2,9 L1,10 L0,19 L-1,19 L-2,3 Z " fill="#3F605B" transform="translate(174,62)"/>
<path d="M0,0 L1,3 L6,1 L4,6 L7,9 L1,10 L0,9 Z " fill="#5D9382" transform="translate(153,43)"/>
<path d="M0,0 L1,0 L1,9 L-4,7 L-4,3 Z " fill="#ACB4E6" transform="translate(161,43)"/>
<path d="M0,0 L0,3 L-2,8 L-6,10 L-6,4 L-3,1 Z " fill="#535562" transform="translate(159,401)"/>
<path d="M0,0 L2,2 L2,9 L0,19 L-1,19 L-2,6 Z " fill="#42635F" transform="translate(174,42)"/>
<path d="M0,0 L9,0 L10,4 L6,6 L3,4 L3,2 L0,1 Z " fill="#49D59C" transform="translate(627,254)"/>
<path d="M0,0 L2,1 L2,8 L0,18 L-1,18 L-2,5 Z " fill="#426460" transform="translate(174,82)"/>
<path d="M0,0 L1,0 L3,15 L-1,15 L-1,4 L-2,1 Z " fill="#303F46" transform="translate(173,380)"/>
<path d="M0,0 L2,0 L2,12 L-1,9 L-1,1 Z " fill="#A09B6C" transform="translate(149,342)"/>
<path d="M0,0 L1,0 L1,13 L-2,10 L-2,2 L0,2 Z " fill="#EDE29D" transform="translate(163,184)"/>
<path d="M0,0 L4,4 L3,5 L-5,5 L-5,1 Z " fill="#49D59C" transform="translate(572,185)"/>
<path d="M0,0 L4,4 L5,10 L1,10 Z " fill="#6D78B9" transform="translate(115,141)"/>
<path d="M0,0 L2,2 L2,9 L1,10 L0,19 L-1,19 L-1,5 Z " fill="#436562" transform="translate(174,101)"/>
<path d="M0,0 L3,0 L5,8 L3,10 L1,9 L-1,1 Z " fill="#49D59C" transform="translate(440,98)"/>
<path d="M0,0 L4,2 L6,3 L5,7 L0,5 L-2,2 Z " fill="#123426" transform="translate(168,58)"/>
<path d="M0,0 L3,1 L3,5 L5,6 L0,7 L-8,7 L-4,5 L0,5 Z " fill="#394064" transform="translate(162,134)"/>
<path d="M0,0 L3,1 L3,6 L0,7 L0,4 L-4,4 L-4,1 Z " fill="#8893D2" transform="translate(159,31)"/>
<path d="M0,0 L6,1 L11,5 L11,10 L8,10 L6,4 L0,1 Z " fill="#383D65" transform="translate(154,27)"/>
<path d="M0,0 L7,0 L7,17 L6,17 L5,5 L4,1 Z " fill="#939EDD" transform="translate(157,0)"/>
<path d="M0,0 L4,0 L5,7 L0,7 Z " fill="#818FDC" transform="translate(140,143)"/>
<path d="M0,0 L1,3 L3,4 L1,8 L-1,10 L-3,6 L-2,1 Z " fill="#58907E" transform="translate(156,119)"/>
<path d="M0,0 L1,0 L1,6 L-3,10 L-1,5 L-13,5 L-13,4 L0,3 Z " fill="#5E7B81" transform="translate(163,253)"/>
<path d="M0,0 L2,0 L4,3 L4,9 L0,8 Z " fill="#49D59C" transform="translate(710,225)"/>
<path d="M0,0 L1,3 L0,11 L-2,9 L-3,11 L-5,10 L-4,6 Z " fill="#2E4279" transform="translate(213,140)"/>
<path d="M0,0 L2,1 L2,8 L0,14 L-1,14 L-2,5 Z " fill="#385E55" transform="translate(174,121)"/>
<path d="M0,0 L4,2 L4,6 L0,8 Z " fill="#AAB4DD" transform="translate(154,112)"/>
<path d="M0,0 L2,1 L1,11 L-1,12 L-1,1 Z " fill="#25A37A" transform="translate(188,478)"/>
<path d="M0,0 L5,5 L6,8 L4,13 L3,13 L0,4 Z " fill="#658186" transform="translate(161,292)"/>
<path d="M0,0 L9,0 L9,3 L0,3 Z " fill="#E6D794" transform="translate(144,210)"/>
<path d="M0,0 L7,3 L7,5 L0,4 L-4,1 Z " fill="#808CD6" transform="translate(144,171)"/>
<path d="M0,0 L4,2 L4,6 L2,6 L2,8 L0,8 Z " fill="#ACB4DE" transform="translate(154,73)"/>
<path d="M0,0 L2,3 L2,8 L-3,7 L-2,3 Z " fill="#CED1EC" transform="translate(237,195)"/>
<path d="M0,0 L2,2 L2,8 L-3,7 L-4,3 L0,3 Z " fill="#CACDE9" transform="translate(224,192)"/>
<path d="M0,0 L7,1 L9,3 L8,4 L0,3 Z " fill="#49D59C" transform="translate(420,115)"/>
<path d="M0,0 L5,2 L3,6 L2,8 L0,8 Z " fill="#AAB3DD" transform="translate(154,93)"/>
<path d="M0,0 L2,1 L-1,3 Z M-3,3 L0,4 L1,9 L-2,10 L-4,4 Z " fill="#41C196" transform="translate(134,622)"/>
<path d="M0,0 L1,0 L1,6 L-2,9 L-4,8 L-2,3 Z " fill="#F0E5A6" transform="translate(158,167)"/>
<path d="M0,0 L5,3 L3,7 L0,8 Z " fill="#ACB3E0" transform="translate(154,53)"/>
<path d="M0,0 L4,0 L3,5 L1,5 L1,7 L-1,7 Z " fill="#B4BCE1" transform="translate(155,35)"/>
<path d="M0,0 L3,4 L4,7 L1,12 L0,12 Z " fill="#8B4A17" transform="translate(165,168)"/>
<path d="M0,0 L1,0 L1,6 L-2,9 L-2,7 L-4,6 Z " fill="#EDE5AD" transform="translate(163,159)"/>
<path d="M0,0 L3,3 L3,5 L-1,8 L-4,7 Z " fill="#B4BAE4" transform="translate(123,153)"/>
<path d="M0,0 L4,2 L6,8 L2,6 L0,7 Z " fill="#999B76" transform="translate(141,298)"/>
<path d="M0,0 L2,2 L2,8 L-2,7 L-1,1 Z " fill="#808CD6" transform="translate(221,186)"/>
<path d="M0,0 L4,2 L3,8 L1,7 L2,5 L-2,3 Z " fill="#79B9A5" transform="translate(157,51)"/>
<path d="M0,0 L3,1 L1,1 L0,8 L-3,9 L-3,4 L-1,4 Z " fill="#49D59C" transform="translate(481,657)"/>
<path d="M0,0 L3,1 L3,9 L0,7 Z " fill="#49D59C" transform="translate(604,220)"/>
<path d="M0,0 L5,2 L11,5 L11,7 L6,5 L0,1 Z " fill="#C7CBE9" transform="translate(136,175)"/>
<path d="M0,0 L5,1 L3,6 L0,9 Z " fill="#CBAB7A" transform="translate(158,166)"/>
<path d="M0,0 L2,4 L4,5 L4,7 L1,7 L0,9 L-2,2 L0,2 Z " fill="#40BE95" transform="translate(156,680)"/>
<path d="M0,0 L2,0 L3,3 L0,6 L-3,3 Z " fill="#68868C" transform="translate(155,344)"/>
<path d="M0,0 L3,3 L-2,7 L-3,3 Z " fill="#C1C5E1" transform="translate(118,159)"/>
<path d="M0,0 L4,1 L-2,8 L-4,10 L-3,5 Z " fill="#CACEE1" transform="translate(183,151)"/>
<path d="M0,0 L3,2 L2,4 L0,4 L0,6 L-3,5 L-2,1 Z " fill="#49D59C" transform="translate(487,142)"/>
<path d="M0,0 L3,0 L3,2 L-2,4 L-2,6 L-4,6 L-4,1 Z " fill="#77B7A2" transform="translate(158,60)"/>
<path d="M0,0 L6,0 L6,3 L-2,4 Z " fill="#23262F" transform="translate(159,397)"/>
<path d="M0,0 L5,2 L6,6 L3,6 L3,4 L1,4 Z " fill="#49D59C" transform="translate(735,315)"/>
<path d="M0,0 L3,0 L4,4 L2,5 L-3,3 Z " fill="#49D59C" transform="translate(639,199)"/>
<path d="M0,0 L3,0 L3,4 L6,5 L1,6 L0,5 Z " fill="#8690CA" transform="translate(152,135)"/>
<path d="M0,0 L3,1 L3,7 L0,8 Z " fill="#668489" transform="translate(151,317)"/>
<path d="M0,0 L1,0 L1,7 L-3,7 L-1,2 Z " fill="#F1E7AF" transform="translate(163,167)"/>
<path d="M0,0 L7,1 L9,5 L5,4 L5,2 L0,1 Z " fill="#3F456F" transform="translate(152,152)"/>
<path d="M0,0 L3,2 L2,6 L-3,2 Z " fill="#7ABAA6" transform="translate(157,129)"/>
<path d="M0,0 L3,3 L2,6 L0,4 L-2,6 L-3,2 L0,2 Z " fill="#97A2E1" transform="translate(231,179)"/>
<path d="M0,0 L3,1 L1,6 L-1,7 L-2,4 L-4,2 L0,2 Z " fill="#44486B" transform="translate(154,169)"/>
<path d="M0,0 L3,1 L3,7 L-1,3 Z " fill="#7ABBA5" transform="translate(157,110)"/>
<path d="M0,0 L1,0 L1,7 L-3,5 L-1,1 Z " fill="#222C51" transform="translate(172,73)"/>
<path d="M0,0 L5,1 L1,4 L-1,4 Z " fill="#49D59C" transform="translate(487,661)"/>
<path d="M0,0 L4,1 L6,5 L3,5 Z " fill="#49D59C" transform="translate(468,687)"/>
<path d="M0,0 L3,1 L2,6 L-1,2 Z " fill="#49D59C" transform="translate(332,606)"/>
<path d="M0,0 L5,2 L1,3 Z " fill="#49D59C" transform="translate(647,208)"/>
<path d="M0,0 L4,1 L5,3 L2,3 L2,1 Z " fill="#49D59C" transform="translate(621,208)"/>
<path d="M0,0 L2,1 L0,5 L-1,3 Z " fill="#49D59C" transform="translate(632,113)"/>
<path d="M0,0 L2,0 L2,2 L-1,1 Z " fill="#49D59C" transform="translate(356,671)"/>
<path d="M0,0 L2,1 L-1,1 Z " fill="#49D59C" transform="translate(643,197)"/>
<path d="M0,0 L2,1 L1,3 Z " fill="#49D59C" transform="translate(275,139)"/>
<path d="M0,0 L3,1 L0,1 Z " fill="#49D59C" transform="translate(670,134)"/>
<path d="M0,0 L1,3 L-1,2 Z " fill="#49D59C" transform="translate(456,104)"/>
<path d="M0,0 L3,1 Z " fill="#49D59C" transform="translate(557,679)"/>
<path d="M0,0 L2,0 L1,2 Z " fill="#49D59C" transform="translate(582,655)"/>
<path d="M0,0 L2,1 Z " fill="#49D59C" transform="translate(478,694)"/>
<path d="M0,0 L2,1 Z " fill="#49D59C" transform="translate(430,681)"/>
<path d="M0,0 Z " fill="#49D59C" transform="translate(376,675)"/>
<path d="M0,0 Z " fill="#49D59C" transform="translate(577,647)"/>
<path d="M0,0 L2,1 Z " fill="#49D59C" transform="translate(346,647)"/>
<path d="M0,0 L2,1 Z " fill="#49D59C" transform="translate(789,570)"/>
<path d="M0,0 Z " fill="#49D59C" transform="translate(727,482)"/>
<path d="M0,0 Z " fill="#49D59C" transform="translate(726,474)"/>
<path d="M0,0 L2,1 Z " fill="#49D59C" transform="translate(780,212)"/>
<path d="M0,0 L2,1 Z " fill="#49D59C" transform="translate(645,207)"/>
<path d="M0,0 L2,1 Z " fill="#49D59C" transform="translate(643,206)"/>
<path d="M0,0 Z " fill="#49D59C" transform="translate(642,204)"/>
<path d="M0,0 L2,1 Z " fill="#49D59C" transform="translate(634,200)"/>
<path d="M0,0 L2,1 Z " fill="#49D59C" transform="translate(533,74)"/>
<path d="M0,0 Z " fill="#49D59C" transform="translate(476,694)"/>
<path d="M0,0 Z " fill="#49D59C" transform="translate(474,692)"/>
<path d="M0,0 Z " fill="#49D59C" transform="translate(464,680)"/>
<path d="M0,0 Z " fill="#49D59C" transform="translate(484,656)"/>
<path d="M0,0 Z " fill="#49D59C" transform="translate(194,591)"/>
<path d="M0,0 Z " fill="#49D59C" transform="translate(309,578)"/>
<path d="M0,0 Z " fill="#49D59C" transform="translate(739,267)"/>
<path d="M0,0 Z " fill="#49D59C" transform="translate(709,224)"/>
<path d="M0,0 Z " fill="#49D59C" transform="translate(576,189)"/>
<path d="M0,0 Z " fill="#49D59C" transform="translate(612,171)"/>
<path d="M0,0 Z " fill="#49D59C" transform="translate(611,170)"/>
<path d="M0,0 Z " fill="#49D59C" transform="translate(591,149)"/>
<path d="M0,0 Z " fill="#49D59C" transform="translate(516,136)"/>
<path d="M0,0 Z " fill="#49D59C" transform="translate(483,132)"/>
<path d="M0,0 Z " fill="#49D59C" transform="translate(538,126)"/>
<path d="M0,0 Z " fill="#49D59C" transform="translate(449,118)"/>
<path d="M0,0 Z " fill="#49D59C" transform="translate(545,117)"/>
<path d="M0,0 Z " fill="#49D59C" transform="translate(448,93)"/>
<path d="M0,0 Z " fill="#49D59C" transform="translate(462,87)"/>
<path d="M0,0 Z " fill="#49D59C" transform="translate(531,74)"/>
<path d="M0,0 Z " fill="#49D59C" transform="translate(530,73)"/>
<path d="M0,0 Z " fill="#49D59C" transform="translate(528,73)"/>
</svg>
